<svg xmlns="http://www.w3.org/2000/svg" viewBox="0 0 64 64" width="24" height="24">
  <g>
      <rect fill="#25D1DA" x="0" y="0" width="64" height="64" rx="14"></rect>
      <path d="M32.7704348,9.81530435 C35.6252174,9.81530435 39.3544348,10.5744348 41.6069565,12.7361739 C44.3801739,15.3249043 44.2024013,18.7545709 44.189979,22.4957131 L44.1893913,31.9683478 C44.1893913,34.7158261 45.328,35.9203478 46.4005217,37.4055652 C46.78,37.9335652 46.8626087,38.5690435 46.384,38.9648696 C45.1876522,39.9631304 43.0589565,41.8196522 41.8874783,42.8593043 L41.8709565,42.8427826 C41.4833043,43.1892174 40.9222609,43.214087 40.4850435,42.9829565 C38.537913,41.365913 38.1913043,40.6151304 37.1187826,39.0721739 C33.9010435,42.356 31.6238261,43.3377391 27.4490435,43.3377391 C22.5151304,43.3377391 18.6702609,40.2932174 18.6702609,34.196 C18.6702609,29.4354783 21.2528696,26.1928696 24.9241739,24.6088696 C28.1090435,23.206087 32.5561739,22.9586087 35.9554783,22.5709565 L35.9554783,21.8118261 C35.9554783,20.4173913 36.0626087,18.7673043 35.245913,17.5627826 C34.528,16.481913 33.1584348,16.0363478 31.9537391,16.0363478 C29.717913,16.0363478 27.7212174,17.1831304 27.2344348,19.5593043 C27.1353043,20.0874783 26.7476522,20.6073043 26.2196522,20.632 L20.5266087,20.0215652 C20.0481739,19.914087 19.5201739,19.5264348 19.6521739,18.792 C20.964,11.8946087 27.1930435,9.81530435 32.7704348,9.81530435 Z M35.9554783,27.2737391 C31.7144348,27.2737391 27.2344348,28.1812174 27.2344348,33.1812174 C27.2344348,35.714087 28.5462609,37.4302609 30.7987826,37.4302609 C32.4488696,37.4302609 33.9257391,36.4154783 34.858087,34.7652174 C35.8916247,32.9492906 35.9541949,31.2323541 35.9559156,29.2540229 Z" fill="#000000" fill-rule="nonzero"></path>
      <path d="M48.2613913,46.3172174 C29.9596522,55.0273043 18.6013913,47.7398261 11.3306087,43.3135652 C10.8806957,43.0346087 10.116,43.3787826 10.7794783,44.1408696 C13.2017391,47.077913 21.14,54.1570435 31.5017391,54.1570435 C41.8706087,54.1570435 48.0391304,48.4993043 48.8107826,47.5123478 C49.5772174,46.5337391 49.0358261,45.993913 48.2612174,46.3172174 L48.2613913,46.3172174 Z M53.4013913,43.4786087 C52.909913,42.8386087 50.4128696,42.7193043 48.8413913,42.9123478 C47.2674783,43.0998261 44.9050435,44.0617391 45.1104348,44.6393043 C45.2158261,44.8556522 45.4309565,44.7586087 46.5121739,44.6613913 C47.5963478,44.5532174 50.6335652,44.169913 51.2664348,44.9972174 C51.9022609,45.8302609 50.2977391,49.7986087 50.0046957,50.4386087 C49.7215652,51.0786087 50.1128696,51.2436522 50.6446957,50.8173913 C51.1692174,50.3913043 52.1187826,49.2878261 52.756,47.7262609 C53.3888696,46.1561739 53.7747826,43.965913 53.4012174,43.4786087 L53.4013913,43.4786087 Z" fill="#000000" fill-rule="nonzero"></path>
  </g>
</svg>