<svg xmlns="http://www.w3.org/2000/svg" viewBox="0 0 24 24" width="24" height="24">
<g transform="translate(-0.000014, -0.000014)" fill-rule="nonzero">
<path d="M5.34001356,5.16520691e-17 C3.92278028,-0.00318201407 2.5626729,0.558397276 1.56053509,1.56053509 C0.558397276,2.5626729 -0.00318201407,3.92278028 1.02592631e-17,5.34001356 L1.02592631e-17,18.6600136 C-0.00318201407,20.0772468 0.558397276,21.4373542 1.56053509,22.439492 C2.5626729,23.4416299 3.92278028,24.0032091 5.34001356,24.0000271 L18.6600136,24.0000271 C20.0772468,24.0032091 21.4373542,23.4416299 22.439492,22.439492 C23.4416299,21.4373542 24.0032091,20.0772468 24.0000271,18.6600136 L24.0000271,5.34001356 C24.0032091,3.92278028 23.4416299,2.5626729 22.439492,1.56053509 C21.4373542,0.558397276 20.0772468,-0.00318201407 18.6600136,5.16520691e-17 L5.34001356,5.16520691e-17 Z" fill="#9933CC"></path>
<path d="M11.8650136,2.56801356 C14.2010136,2.56801356 16.3130136,3.47001356 17.9210136,5.15501356 C19.1450136,6.42701356 19.8330136,7.77401356 20.1850136,9.54701356 C20.3050136,10.1370136 20.3050136,11.7470136 20.1920136,12.4110136 C19.817853,14.5215141 18.6607029,16.4129544 16.9520136,17.7070136 C16.3440136,18.1670136 14.8560136,18.9680136 14.6160136,18.9680136 C14.5280136,18.9680136 14.5200136,18.8770136 14.5600136,18.5080136 C14.6320136,17.9160136 14.7040136,17.7930136 15.0400136,17.6520136 C15.5760136,17.4280136 16.4880136,16.7780136 17.0480136,16.2170136 C18.0243274,15.2412633 18.7182141,14.0193591 19.0560136,12.6810136 C19.2640136,11.8570136 19.2400136,10.0250136 19.0080136,9.17701356 C18.2800136,6.48101356 16.0800136,4.38501356 13.3840136,3.82501356 C12.6000136,3.66501356 11.1760136,3.66501356 10.3840136,3.82501356 C7.65601356,4.38501356 5.40001356,6.58501356 4.71201356,9.35301356 C4.52801356,10.1050136 4.52801356,11.9370136 4.71201356,12.6890136 C5.16801356,14.5210136 6.35201356,16.2010136 7.90401356,17.2010136 C8.20801356,17.4010136 8.57601356,17.6090136 8.72801356,17.6730136 C9.06401356,17.8170136 9.13601356,17.9370136 9.20001356,18.5290136 C9.24001356,18.8890136 9.23001356,18.9930136 9.14401356,18.9930136 C9.08801356,18.9930136 8.68001356,18.8170136 8.24801356,18.6090136 L8.20801356,18.5790136 C5.73601356,17.3630136 4.15201356,15.3050136 3.57601356,12.5670136 C3.43201356,11.8610136 3.40801356,10.1750136 3.54601356,9.52701356 C3.90601356,7.78701356 4.59401356,6.42701356 5.73801356,5.22301356 C7.38601356,3.48601356 9.50601356,2.56701356 11.8660136,2.56701356 L11.8650136,2.56801356 Z" fill="#FFFFFF"></path>
<path d="M11.9990136,5.37801356 C12.4080136,5.38201356 12.8020136,5.41801356 13.1050136,5.48401356 C15.8890136,6.10401356 17.8650136,8.89201356 17.4810136,11.6580136 C17.3290136,12.7720136 16.9450136,13.6880136 16.2650136,14.5380136 C15.9290136,14.9680136 15.1130136,15.6880136 14.9690136,15.6880136 C14.9460136,15.6880136 14.9210136,15.4160136 14.9210136,15.0850136 L14.9210136,14.4800136 L15.3370136,13.9840136 C16.9050136,12.1060136 16.7930136,9.48201356 15.0810136,7.76001356 C14.4170136,7.09001356 13.6490136,6.69601356 12.6570136,6.51401356 C12.0170136,6.39601356 11.8810136,6.39601356 11.2090136,6.50601356 C10.1890136,6.67301356 9.39901356,7.06801356 8.69701356,7.76201356 C6.97701356,9.46601356 6.86501356,12.1040136 8.43301356,13.9840136 L8.84601356,14.4800136 L8.84601356,15.0880136 C8.84601356,15.4240136 8.81901356,15.6960136 8.78601356,15.6960136 C8.75601356,15.6960136 8.52201356,15.5360136 8.27401356,15.3360136 L8.24001356,15.3250136 C7.40801356,14.6610136 6.67201356,13.4830136 6.36801356,12.3280136 C6.18401356,11.6300136 6.18401356,10.3040136 6.37601356,9.60801356 C6.88001356,7.73001356 8.26401356,6.27301356 10.1840136,5.58901356 C10.5940136,5.44401356 11.3170136,5.36901356 11.9980136,5.37801356 L11.9990136,5.37801356 Z" fill="#FFFFFF"></path>
<path d="M11.8690136,8.36801356 C12.1790136,8.36801356 12.4890136,8.42801356 12.7130136,8.54601356 C13.2010136,8.79901356 13.6010136,9.29101356 13.7530136,9.80501356 C14.2170136,11.3830136 12.5450136,12.7650136 11.0330136,12.0590136 L11.0180136,12.0590136 C10.3060136,11.7280136 9.92201356,11.1030136 9.91401356,10.2890136 C9.91401356,9.55601356 10.3220136,8.91801356 11.0260136,8.54401356 C11.2500136,8.42701356 11.5600136,8.36801356 11.8700136,8.36801356 L11.8690136,8.36801356 Z" fill="#FFFFFF"></path>
<path d="M11.8580136,13.0959799 C12.8460136,13.0920136 13.5640136,13.4450136 13.8280136,14.0660136 C14.0260136,14.5300136 13.9520136,15.9980136 13.6100136,18.3680136 C13.3780136,20.0240136 13.2500136,20.4420136 12.9300136,20.7240136 C12.4900136,21.1140136 11.8660136,21.2220136 11.2740136,21.0120136 L11.2710136,21.0120136 C10.5550136,20.7550136 10.4010136,20.4070136 10.1070136,18.3680136 C9.76601356,15.9980136 9.69101356,14.5300136 9.88901356,14.0660136 C10.1510136,13.4500136 10.8630136,13.1000136 11.8590136,13.0959799 L11.8580136,13.0959799 Z" fill="#FFFFFF"></path>
</g>
</svg>