<svg xmlns="http://www.w3.org/2000/svg" viewBox="0 0 22 24" width="24" height="24">
<g transform="translate(0.613000, -0.000159)" fill-rule="nonzero">
    <path d="M10.387,-1.01101853e-17 C10.097,-1.01101853e-17 9.807,0.0681588029 9.575,0.206158803 L0.804,5.3921588 C0.344,5.6641588 0,6.2671588 0,6.8001588 L0,17.2001588 C0,17.7331588 0.344,18.3351588 0.804,18.6071588 L9.574,23.7941588 C10.039,24.0691588 10.736,24.0691588 11.2,23.7941588 L19.97,18.6071588 C20.43,18.3351588 20.774,17.7331588 20.774,17.2001588 L20.774,6.8001588 C20.774,6.2671588 20.43,5.6641588 19.97,5.3921588 L11.2,0.206158803 C10.9518166,0.067228244 10.6713956,-0.00382553235 10.387,-1.01101853e-17 Z" fill="#F55B23"></path>
    <path d="M9.537,8.3041588 C9.931,8.3041588 10.251,8.6071588 10.251,8.9801588 L10.251,11.2041588 C10.251,11.4111588 10.442,11.5791588 10.678,11.5791588 C10.914,11.5791588 11.106,11.4111588 11.106,11.2041588 L11.106,9.5701588 C11.106,9.1971588 11.426,8.8951588 11.819,8.8951588 C12.213,8.8951588 12.531,9.1971588 12.531,9.5701588 L12.531,14.2831588 C12.531,14.6571588 12.213,14.9591588 11.819,14.9591588 C11.425,14.9591588 11.106,14.6571588 11.106,14.2831588 L11.106,12.9731588 C11.106,12.7671588 10.914,12.5991588 10.678,12.5991588 C10.442,12.5991588 10.251,12.7671588 10.251,12.9731588 L10.251,14.1991588 C10.251,14.5731588 9.931,14.8751588 9.538,14.8751588 C9.144,14.8751588 8.825,14.5731588 8.825,14.1991588 L8.825,12.5321588 C8.825,12.3251588 8.633,12.1571588 8.397,12.1571588 C8.162,12.1571588 7.97,12.3251588 7.97,12.5321588 L7.97,15.8421588 C7.97,16.2151588 7.651,16.5181588 7.258,16.5181588 C6.864,16.5181588 6.545,16.2151588 6.545,15.8421588 L6.545,13.4151588 C6.545,13.2091588 6.354,13.0411588 6.117,13.0411588 C5.882,13.0411588 5.69,13.2091588 5.69,13.4151588 L5.69,13.5931588 C5.68947031,13.7814627 5.61415849,13.9618437 5.48063242,14.0946197 C5.34710636,14.2273956 5.16630393,14.30169 4.978,14.3011588 C4.78952312,14.3019559 4.60846359,14.2277791 4.47472101,14.0949744 C4.34097842,13.9621697 4.26552924,13.7816366 4.265,13.5931588 L4.265,11.4701588 C4.26552924,11.281681 4.34097842,11.1011479 4.47472101,10.9683432 C4.60846359,10.8355385 4.78952312,10.7613617 4.978,10.7621588 C5.16630393,10.7616276 5.34710636,10.835922 5.48063242,10.9686979 C5.61415849,11.1014739 5.68947031,11.2818549 5.69,11.4701588 L5.69,11.6481588 C5.69,11.8541588 5.882,12.0211588 6.117,12.0211588 C6.354,12.0211588 6.545,11.8541588 6.545,11.6481588 L6.545,10.1181588 C6.545,9.7441588 6.865,9.4421588 7.258,9.4421588 C7.651,9.4421588 7.97,9.7451588 7.97,10.1181588 L7.97,10.7641588 C7.97,10.9701588 8.162,11.1381588 8.397,11.1381588 C8.633,11.1381588 8.825,10.9701588 8.825,10.7641588 L8.825,8.9801588 C8.825,8.6071588 9.144,8.3041588 9.538,8.3041588 L9.537,8.3041588 Z" fill="#FFFFFF"></path>
    <path d="M14.099,10.7201588 C14.492,10.7201588 14.812,11.0221588 14.812,11.3961588 L14.812,14.0871588 C14.812,14.4611588 14.492,14.7631588 14.099,14.7631588 C13.705,14.7631588 13.387,14.4601588 13.387,14.0871588 L13.387,11.3961588 C13.387,11.0221588 13.706,10.7201588 14.099,10.7201588 L14.099,10.7201588 Z" fill="#FFFFFF"></path>
    <path d="M16.379,12.0881588 C16.774,12.0881588 17.092,12.3911588 17.092,12.7641588 L17.092,13.4341588 C17.092,13.8081588 16.774,14.1101588 16.38,14.1101588 C15.986,14.1101588 15.667,13.8081588 15.667,13.4351588 L15.667,12.7651588 C15.667,12.3911588 15.987,12.0881588 16.38,12.0881588 L16.379,12.0881588 Z" fill="#FFFFFF"></path>
</g>
</svg>