<svg xmlns="http://www.w3.org/2000/svg" viewBox="0 0 250 163.17" width="24" height="24">
<defs>
<linearGradient id="deezer-e" x1="90.71" x2="90.5" y1="62.45" y2="49.29" gradientTransform="matrix(2.4611 0 0 2.4611 0 -77.943)" gradientUnits="userSpaceOnUse">
<stop stop-color="#358c7b" offset="0"></stop>
<stop stop-color="#33a65e" offset=".5256"></stop>
</linearGradient>
<linearGradient id="deezer-a" x1="79.29" x2="101.91" y1="79.49" y2="67.97" gradientTransform="matrix(2.4611 0 0 2.4611 0 -77.943)" gradientUnits="userSpaceOnUse">
<stop stop-color="#222b90" offset="0"></stop>
<stop stop-color="#367b99" offset="1"></stop>
</linearGradient>
<linearGradient id="deezer-b" x2="21.95" y1="91.55" y2="91.55" gradientTransform="matrix(2.4611 0 0 2.4611 0 -77.943)" gradientUnits="userSpaceOnUse">
<stop stop-color="#f90" offset="0"></stop>
<stop stop-color="#ff8000" offset="1"></stop>
</linearGradient>
<linearGradient id="deezer-h" x1="26.55" x2="48.49" y1="91.55" y2="91.55" gradientTransform="matrix(2.4611 0 0 2.4611 0 -77.943)" gradientUnits="userSpaceOnUse">
<stop stop-color="#ff8000" offset="0"></stop>
<stop stop-color="#cc1953" offset="1"></stop>
</linearGradient>
<linearGradient id="deezer-g" x1="53.09" x2="75.03" y1="91.55" y2="91.55" gradientTransform="matrix(2.4611 0 0 2.4611 0 -77.943)" gradientUnits="userSpaceOnUse">
<stop stop-color="#cc1953" offset="0"></stop>
<stop stop-color="#241284" offset="1"></stop>
</linearGradient>
<linearGradient id="deezer-i" x1="79.6" x2="101.55" y1="91.55" y2="91.55" gradientTransform="matrix(2.4611 0 0 2.4611 0 -77.943)" gradientUnits="userSpaceOnUse">
<stop stop-color="#222b90" offset="0"></stop>
<stop stop-color="#3559a6" offset="1"></stop>
</linearGradient>
<linearGradient id="deezer-c" x1="52.22" x2="75.9" y1="77.19" y2="70.27" gradientTransform="matrix(2.4611 0 0 2.4611 0 -77.943)" gradientUnits="userSpaceOnUse">
<stop stop-color="#cc1953" offset="0"></stop>
<stop stop-color="#241284" offset="1"></stop>
</linearGradient>
<linearGradient id="deezer-f" x1="25.76" x2="49.27" y1="69.45" y2="78.01" gradientTransform="matrix(2.4611 0 0 2.4611 0 -77.943)" gradientUnits="userSpaceOnUse">
<stop stop-color="#fc0" offset=".0026698"></stop>
<stop stop-color="#ce1938" offset=".9999"></stop>
</linearGradient>
<linearGradient id="deezer-d" x1="28.39" x2="46.65" y1="47.49" y2="64.33" gradientTransform="matrix(2.4611 0 0 2.4611 0 -77.943)" gradientUnits="userSpaceOnUse">
<stop stop-color="#ffd100" offset=".0026698"></stop>
<stop stop-color="#fd5a22" offset="1"></stop>
</linearGradient>
</defs>
<path d="m250 0v31.625h-54.046v-31.625h54.046z" fill="#40ab5d" stroke-width="2.4611"></path>
<path d="m250 43.832v31.625h-54.046v-31.625h54.046z" fill="url(#deezer-e)" stroke-width="2.4611"></path>
<path d="m250 87.69v31.625h-54.046v-31.625h54.046z" fill="url(#deezer-a)" stroke-width="2.4611"></path>
<path d="m54.046 131.55v31.625h-54.046v-31.625h54.046z" fill="url(#deezer-b)" stroke-width="2.4611"></path>
<path d="m119.34 131.55v31.625h-54.071v-31.625h54.071z" fill="url(#deezer-h)" stroke-width="2.4611"></path>
<path d="m184.73 131.55v31.625h-54.071v-31.625h54.071z" fill="url(#deezer-g)" stroke-width="2.4611"></path>
<path d="m250 131.55v31.625h-54.046v-31.625h54.046z" fill="url(#deezer-i)" stroke-width="2.4611"></path>
<path d="m184.73 87.69v31.625h-54.071v-31.625h54.071z" fill="url(#deezer-c)" stroke-width="2.4611"></path>
<path d="m119.34 87.69v31.625h-54.071v-31.625h54.071z" fill="url(#deezer-f)" stroke-width="2.4611"></path>
<path d="m119.34 43.832v31.625h-54.071v-31.625h54.071z" fill="url(#deezer-d)" stroke-width="2.4611"></path>
</svg>