<svg xmlns="http://www.w3.org/2000/svg" viewBox="0 0 50 49" width="24" height="24">
    <title>Goodpods</title>
    <defs>
        <ellipse id="goodpods-path-1" cx="24.75" cy="24.25" rx="24.75" ry="24.25"></ellipse>
    </defs>
    <g stroke="none" stroke-width="1" fill="none" fill-rule="evenodd">
        <g id="Goodpods_Icon_50x50" transform="translate(0.500000, 0.500000)">
            <ellipse id="goodpods-Oval" fill="#FCDB00" fill-rule="nonzero" opacity="0.757812" cx="24.75" cy="24.25" rx="24.75" ry="24.25"></ellipse>
            <g id="Clipped">
                <mask id="goodpods-mask-2" fill="white">
                    <use xlink:href="#goodpods-path-1"></use>
                </mask>
                <g id="goodpods-Oval"></g>
                <g mask="url(#goodpods-mask-2)">
                    <g transform="translate(-7.250000, -7.000000)">
                        <rect fill="#FCDB00" fill-rule="nonzero" x="0" y="0" width="69.75" height="63"></rect>
                        <polygon fill="#FFFFFF" fill-rule="evenodd" points="27.2705 19.583 23.541 24.1608 22.7685 29.1594 21.0654 30.0698 20.8232 34.7013 21.4713 37.9481 23.541 39.3412 25.5758 38.9081 27.2705 37.1495 26.8843 33.562 26.5233 29.8573 24.9825 28.66 25.219 25.5511 28.2879 21.7649 31.8958 21.5526 34.8668 22.1388 36.8106 23.6436 37.9442 26.2491 38.1611 29.1594 37.3102 30.7621 37.3325 33.7096 37.7035 37.2572 38.0532 38.6405 41.51 38.6405 42.5987 37.3095 43.0228 34.2434 42.0502 29.5773 40.1512 28.4202 39.2415 23.6436 35.5693 19.3168 31.508 18.092"></polygon>
                        <path d="M48.5463,41.0148 C48.4918,41.0148 48.4362,41.0093 48.3797,40.9984 C48.1738,40.9571 47.9725,40.8908 47.7961,40.8061 C47.4878,40.6583 47.1932,40.4923 46.9457,40.3494 C46.5158,40.1023 46.1408,39.9197 45.7089,39.8334 C45.5399,39.7996 45.3024,39.7308 45.1916,39.5239 C45.0807,39.3169 45.1534,39.0838 45.2293,38.9039 C45.2496,38.8514 45.2785,38.7928 45.3133,38.7364 C45.4431,38.5135 45.739,38.4003 45.9988,38.4777 L46.0437,38.4907 C46.1739,38.5281 46.3213,38.5705 46.4429,38.6665 C46.6999,38.8701 46.9999,39.0086 47.3176,39.1554 C47.4533,39.2181 47.5888,39.2808 47.7211,39.3485 C48.0319,39.5061 48.2925,39.5527 48.5676,39.4999 C48.787,39.4574 48.9331,39.5205 49.0167,39.581 C49.1005,39.6421 49.206,39.7614 49.2315,39.9835 C49.2387,40.0471 49.243,40.1108 49.2465,40.1665 L49.2502,40.2198 L49.2442,40.297 C49.2411,40.3376 49.2383,40.3732 49.2343,40.4095 C49.2093,40.6097 49.1124,40.7782 48.9614,40.8868 C48.8442,40.9712 48.7006,41.0148 48.5463,41.0148" fill="#000000" fill-rule="evenodd"></path>
                        <path d="M46.8688,33.7969 C46.8402,33.7969 46.8134,33.7956 46.7885,33.7944 C46.7691,33.7934 46.7496,33.7925 46.7305,33.7925 C46.4405,33.7905 46.1893,33.649 46.1183,33.4482 C46.0732,33.3193 46.086,33.1764 46.1538,33.045 C46.2342,32.8892 46.3801,32.77 46.5545,32.718 C46.8695,32.6256 47.2111,32.5465 47.5833,32.5877 C47.7654,32.6091 47.9472,32.6248 48.1293,32.6406 C48.429,32.6683 48.7393,32.6612 49.1067,32.6174 C49.4173,32.5805 49.5614,32.5177 49.6572,32.3773 C49.7677,32.2197 50.0402,32.177 50.1889,32.2143 C50.3523,32.2549 50.5143,32.4085 50.5577,32.5641 C50.6262,32.8043 50.616,33.1665 50.1781,33.5234 C50.0402,33.6322 49.843,33.6522 49.7374,33.6546 C49.458,33.6615 49.1779,33.6608 48.8981,33.6598 L48.6316,33.6593 C48.4294,33.677 48.2277,33.6786 48.0326,33.6802 C47.6824,33.683 47.3515,33.6856 47.0343,33.7763 C46.9764,33.7927 46.9203,33.7969 46.8688,33.7969" fill="#000000" fill-rule="evenodd"></path>
                        <path d="M45.88,29.2518 C45.7366,29.2518 45.5914,29.1986 45.4838,29.105 C45.3896,29.0232 45.335,28.9179 45.3298,28.8085 C45.321,28.6452 45.3229,28.4712 45.3977,28.3168 C45.4853,28.1316 45.6095,27.9522 45.7561,27.7993 C46.3045,27.2276 46.7661,26.5669 47.2127,25.9279 L47.3846,25.6824 C47.5173,25.4952 47.6818,25.2631 48.0145,25.1929 C48.1607,25.1606 48.4333,25.1546 48.5742,25.2736 C48.643,25.3316 48.6795,25.4142 48.6747,25.5005 C48.6674,25.6316 48.6485,25.7832 48.5657,25.9102 C48.3055,26.3085 48.0204,26.7283 47.6692,27.2319 C47.3228,27.7301 46.9655,28.234 46.607,28.7291 C46.5117,28.8618 46.3924,28.9933 46.2533,29.1188 L46.2526,29.1194 C46.1667,29.1963 46.063,29.2201 46.0009,29.2342 L45.9271,29.2499 C45.9114,29.2512 45.8958,29.2518 45.88,29.2518" fill="#000000" fill-rule="evenodd"></path>
                        <path d="M15.60456,40.2962 C15.50752,40.2962 15.41562,40.2828 15.33212,40.2554 C15.15061,40.1903 15.0157,40.0578 14.95556,39.8895 C14.9071,39.7544 14.91626,39.616 14.98055,39.5103 C15.03491,39.4203 15.09309,39.3244 15.18543,39.253 C15.31935,39.1507 15.47009,39.0357 15.64483,38.9594 C16.36107,38.6464 17.0595,38.2549 17.7348,37.8763 C17.9876,37.7347 18.2403,37.593 18.4945,37.4547 L18.496,37.4539 C18.6525,37.3704 18.8339,37.3574 18.9907,37.3556829 C19.1251,37.3544 19.2514,37.4273 19.3357,37.5563 C19.4088,37.6688 19.4608,37.8455 19.3862,38.0048 C19.2467,38.3034 19.0334,38.5397 18.7519,38.707 C18.6092,38.7922 18.4675,38.8799 18.3259,38.9676 C18.1017,39.1064 17.8697,39.25 17.6344,39.3827 C17.3875,39.5213 17.1346,39.6536 16.8899,39.7816 C16.68306,39.8897 16.47611,39.9979 16.27156,40.1106 C16.05043,40.2324 15.81576,40.2962 15.60456,40.2962" fill="#000000" fill-rule="evenodd"></path>
                        <path d="M15.71589,33.5028 C15.63566,33.5028 15.55588,33.5016 15.47696,33.5003 L15.31237,33.4983 C15.18957,33.4968 15.05336,33.4723 14.92827,33.4292 C14.69589,33.3481 14.55193,33.1749 14.54254,32.9655 C14.53163,32.7304 14.68476,32.5223 14.91496,32.4597 C15.17637,32.3911 15.44858,32.3406 15.72593,32.3094 C15.87841,32.2922 16.03198,32.2846 16.18054,32.2772 C16.3782,32.2676 16.56507,32.2584 16.74429,32.2282 C17.3555,32.1248 17.8681,32.2895 18.331,32.4823 C18.5541,32.5762 18.6746,32.7674 18.6543,32.994 C18.6307,33.2416 18.3913,33.4454 18.1086,33.4602 C18.0683,33.4627 18.028,33.4625 17.9642,33.4622 L17.8185,33.4569 C17.3024,33.3517 16.69506,33.4109 16.22376,33.4744 C16.05469,33.4973 15.8842,33.5028 15.71589,33.5028" fill="#000000" fill-rule="evenodd"></path>
                        <path d="M18.4648,28.913 C18.4593,28.913 18.4536,28.9129 18.4481,28.9127 C18.2819,28.9061 18.1096,28.8991 17.9523,28.822 L17.9522,28.822 C17.6991,28.6978 17.4337,28.5578 17.2075,28.3748 C16.40895,27.7327 15.77927,27.053 15.28308,26.2975 C14.94002,25.7764 14.75513,25.2277 14.73352,24.6665 C14.72817,24.4763 14.90804,24.3537 15.01566,24.2973 C15.16749,24.2196 15.3812,24.2953 15.46536,24.4114 C15.55082,24.5306 15.63738,24.6605 15.69544,24.8095 C16.10442,25.833 16.9287,26.577 17.7377,27.2514 C17.8185,27.3188 17.9298,27.3703 18.0477,27.4248 C18.0963,27.4473 18.1446,27.4698 18.1919,27.4935 C18.2518,27.5239 18.3132,27.5511 18.3746,27.5785 C18.4904,27.6302 18.6104,27.6835 18.7256,27.756 C18.9342,27.8837 19.0574,28.1153 19.037,28.3444 C18.9965,28.6653 18.7423,28.913 18.4648,28.913" fill="#000000" fill-rule="evenodd"></path>
                        <path d="M42.0176,35.0306 C41.9674,35.7918 41.7372,35.7837 41.7288,36.4991 C41.7205,37.2144 41.7211,37.5839 41.4145,37.7041 C41.1076,37.8243 40.1858,38.0462 39.2447,38.0473 C38.3036,38.0485 38.3013,38.0984 38.0888,37.8417 C37.8764,37.5852 37.8007,36.609 37.7665,35.5477 C37.7322,34.4865 37.6977,33.5991 37.5467,32.8787 C37.3957,32.1582 37.5959,30.5927 37.8229,30.0981 C38.0498,29.6035 38.0099,29.6636 38.1834,29.5872 C38.1834,29.5872 38.8639,29.624 39.2447,29.5872 C39.6254,29.5505 40.4998,29.3967 40.8404,29.6043 C41.1811,29.8118 41.3441,30.2162 41.606,31.3815 C41.8681,32.5469 42.0679,34.2693 42.0176,35.0306 M37.2903,24.4938 C37.1506,23.7907 37.2219,24.2047 36.7576,23.297 C36.293,22.3893 36.0367,22.4266 35.2138,21.8853 C34.3907,21.3438 32.6456,20.8439 32.3792,20.7513 C32.1127,20.6586 32.1975,20.7151 31.9063,20.6996 C31.6152,20.6841 31.1603,20.4834 29.6923,20.6996 C28.2242,20.9156 27.0479,21.7806 26.2036,22.7798 C25.3594,23.779 24.8414,24.9049 24.4025,25.7146 C23.9637,26.5244 24.0373,27.215 23.9864,27.6801 C23.9355,28.1452 23.8577,28.0813 23.6951,28.1815 C23.5324,28.2814 23.1689,28.1815 23.1689,28.1815 C22.9959,28.148 23.2193,27.713 23.2543,27.353 C23.2894,26.993 23.1839,26.5559 23.1689,26.2546 C23.1536,25.9535 23.2383,25.8958 23.3322,25.7382 C23.4259,25.5806 23.7682,24.9334 23.9421,24.5818 C24.116,24.2304 24.5301,23.3595 24.7238,23.0133 C24.9174,22.6673 25.0865,22.1508 26.1509,21.2234 C27.2153,20.296 27.7978,20.0777 28.3448,19.8521 C28.892,19.6264 30.0172,19.0136 30.3273,18.9092 C30.6375,18.8048 30.7595,18.7741 31.2341,18.732 C31.7086,18.69 32.974,18.8893 33.3125,18.9242 C33.651,18.9592 33.6212,18.976 33.9936,19.2784 C34.366,19.581 34.8992,20.1388 35.3807,20.4869 C35.862,20.835 36.3933,21.1992 36.5813,21.3693 C36.7694,21.5395 37.1548,21.8285 37.197,22.124 C37.2392,22.4195 37.4622,22.5684 37.6179,22.771 C37.7735,22.9735 37.8008,23.1992 38.1787,24.6379 C38.5566,26.0765 38.6505,26.0826 38.74,26.6436 C38.8294,27.2047 38.7441,27.5915 38.577,27.8025 C38.4101,28.0134 38.3568,27.9092 38.2372,27.7971 C38.1177,27.685 38.0467,27.0177 37.7997,26.2749 C37.5527,25.5322 37.4301,25.1971 37.2903,24.4938 M26.0175,31.8307 C26.1989,32.9929 26.5156,35.4926 26.3145,36.5406 C26.1135,37.5887 25.7719,38.1068 25.3952,38.3556 C25.0187,38.6044 24.1918,38.7467 23.2434,38.4572 C22.2949,38.1676 21.9308,37.9425 21.5922,36.9432 C21.2535,35.9439 21.4421,36.109 21.3169,35.4423 C21.1917,34.7757 21.0351,34.5554 21.0638,34.0383 C21.0926,33.5213 20.9844,31.8448 21.1005,31.2856 C21.2167,30.7264 21.1816,30.1849 21.6981,30.0927 C22.2147,30.0006 22.5234,30.22 22.8632,30.0897 C23.203,29.9595 23.1684,29.9049 23.5139,29.8469 C23.8423,29.7918 24.4819,29.6035 24.8985,29.7942 C25.3151,29.9848 25.8362,30.6683 26.0175,31.8307 M43.1237,32.903 C42.8965,32.2508 42.9956,31.6623 42.8193,30.6064 C42.6429,29.5505 42.185,29.19 42.185,29.19 C42.185,29.19 41.9683,28.5396 41.1105,28.2971 C40.2529,28.0549 40.5036,28.2466 40.4149,27.755 C40.3264,27.2633 40.3098,27.1809 40.1984,26.6819 C40.0868,26.1831 40.0566,25.9512 40.0317,25.4287 C40.0068,24.9062 40.0061,24.3174 39.7707,23.8513 C39.5355,23.3855 39.0958,22.5096 38.6297,21.7308 C38.1635,20.9519 37.8668,20.5576 37.1373,19.951 C36.4079,19.3443 35.9595,18.7084 35.2205,18.3145 C34.4815,17.9208 34.5328,17.8078 33.7945,17.6102 C33.0563,17.4126 32.9546,17.5314 31.9906,17.4497 C31.0267,17.368 30.9325,17.3016 30.1986,17.4497 C29.4647,17.5979 28.9877,18.0293 28.1268,18.427 C27.266,18.8246 26.9136,18.8125 26.3265,19.3171 C25.7395,19.8217 25.8688,19.9766 25.3755,20.3873 C24.8823,20.7979 24.5882,21.0302 23.9252,22.1562 C23.2621,23.2824 22.78,24.4254 22.5417,24.9563 C22.3035,25.4873 22.087,25.6467 22.0574,26.2418 C22.0278,26.8371 22.1506,26.744 22.0096,27.4275 C21.8686,28.1109 21.7195,28.6687 21.7195,28.6687 C21.7195,28.6687 20.8533,28.6521 20.3524,29.6043 C19.8514,30.5565 19.8934,30.9365 19.8258,31.4944 C19.7581,32.0523 19.8942,33.528 19.9966,34.5024 C20.099,35.4768 20.1644,36.8638 20.3344,37.3563 C20.5042,37.8485 21.1192,39.2425 22.4547,39.6581 C23.7903,40.0736 24.0915,40.1312 24.4861,40.0318 C24.8808,39.9325 25.5803,39.7314 26.0739,39.5649 C26.5674,39.3986 27.1552,38.868 27.4287,37.6574 C27.7023,36.4468 27.7194,35.8469 27.6102,34.1747 C27.5011,32.5024 27.5117,31.621 27.0462,30.3541 C26.5808,29.0873 25.8984,28.9041 25.5889,28.6194 C25.2795,28.3348 25.2548,28.4206 25.2954,28.0331 C25.336,27.6456 25.2453,26.7655 26.2268,25.2261 C27.2083,23.6867 28.2239,22.7254 29.6922,22.2928 C31.1604,21.8601 32.2501,22.2085 32.7928,22.4064 C33.3358,22.6045 33.4901,22.6756 33.9601,22.7644 C34.4299,22.8531 34.7586,23.1297 35.0527,23.4798 C35.3469,23.83 35.9578,24.6997 36.2295,25.3004 C36.5011,25.9011 36.3462,26.185 36.6513,26.849 C36.9564,27.513 37.2558,27.7256 37.1922,28.1815 C37.1286,28.6372 37.0623,28.5057 36.9496,28.8298 C36.837,29.154 36.4035,29.7662 36.3407,30.512 C36.2779,31.258 36.2209,31.8745 36.2342,32.6981 C36.2474,33.5215 36.4285,33.7866 36.4171,34.7393 C36.406,35.6918 36.3265,37.2782 36.605,38.0473 C36.8834,38.8166 37.0729,39.3225 37.4031,39.4551 C37.7333,39.5875 37.6555,39.6025 37.8593,39.5866 C37.8593,39.5866 38.0891,39.4559 38.6904,39.4692 C39.2915,39.4824 40.9338,39.5904 41.8151,39.0908 C42.6962,38.5912 42.8559,38.3148 43.0491,36.6858 C43.2425,35.057 43.3507,33.5552 43.1237,32.903" fill="#000000" fill-rule="evenodd"></path>
                    </g>
                </g>
            </g>
        </g>
    </g>
</svg>

