<svg xmlns="http://www.w3.org/2000/svg" viewBox="0 0 345 256" width="24" height="24">
<g fill-rule="nonzero">
    <path d="M205.328,248.032 C205.328,254.174 212.674,257.339 217.137,253.119 L302.317,172.587 C324.103,150.619 344.958,126.88 344.958,93.952 C344.958,42.052 302.908,0 251.004,0 C218.432,0 189.331,17.257 172.479,42.457 C155.627,17.257 126.526,0 93.954,0 C42.049,0 0,42.052 0,93.952 C0,126.88 20.855,150.619 42.641,172.587 L127.821,253.119 C132.284,257.339 139.63,254.174 139.63,248.032" fill="#FFFFFF"></path>
    <path d="M251.004,0 C218.432,0 189.331,17.257 172.479,42.457 C155.627,17.257 126.526,0 93.954,0 C42.049,0 0,42.052 0,93.952 C0,126.88 20.855,150.619 42.641,172.587 L127.821,253.119 C132.284,257.339 139.63,254.174 139.63,248.032 L139.63,185.288 C139.63,167.134 154.332,152.416 172.479,152.386 C190.626,152.416 205.328,167.134 205.328,185.288 L205.328,248.032 C205.328,254.174 212.674,257.339 217.137,253.119 L302.317,172.587 C324.103,150.619 344.958,126.88 344.958,93.952 C344.958,42.052 302.908,0 251.004,0 L251.004,0 Z" fill="#C6002B"></path>
    <path d="M309.245,89.813 C309.245,116.139 295.016,142.09 266.963,166.959 C265.724,168.053 264.181,168.59 262.644,168.59 C260.852,168.59 259.06,167.855 257.772,166.4 C255.388,163.713 255.632,159.598 258.33,157.209 C283.476,134.929 296.228,112.252 296.228,89.813 L296.228,89.498 C296.228,71.285 284.802,49.845 270.215,40.699 C267.168,38.788 266.25,34.768 268.163,31.726 C270.07,28.679 274.091,27.761 277.138,29.666 C295.437,41.152 309.245,66.878 309.245,89.498 L309.245,89.813 Z" fill="#FFFFFF"></path>
    <path d="M224.752,144.745 C223.746,145.309 222.656,145.574 221.572,145.574 C219.294,145.574 217.082,144.374 215.888,142.245 C214.134,139.109 215.252,135.139 218.393,133.387 C233.462,124.946 243.598,108.544 243.637,92.534 C243.604,77.822 235.491,64.431 222.446,57.568 C219.261,55.892 218.039,51.958 219.714,48.775 C221.39,45.595 225.327,44.371 228.507,46.043 C245.816,55.146 256.583,72.908 256.66,92.44 L256.66,92.639 C256.577,113.178 243.77,134.094 224.752,144.745 Z" fill="#FFFFFF"></path>
    <path d="M172.479,125.617 C156.881,125.608 144.24,112.962 144.24,97.362 C144.24,81.763 156.881,69.116 172.479,69.108 C188.077,69.116 200.718,81.763 200.718,97.362 C200.718,112.962 188.077,125.608 172.479,125.617 Z" fill="#FFFFFF"></path>
    <path d="M129.07,142.245 C127.876,144.374 125.664,145.574 123.385,145.574 C122.301,145.574 121.212,145.309 120.206,144.745 C101.188,134.094 88.381,113.178 88.298,92.639 L88.298,92.44 C88.375,72.908 99.142,55.146 116.451,46.043 C119.631,44.371 123.568,45.595 125.244,48.775 C126.919,51.958 125.697,55.892 122.511,57.568 C109.466,64.431 101.354,77.822 101.32,92.534 C101.36,108.544 111.496,124.946 126.565,133.387 C129.706,135.139 130.823,139.109 129.07,142.245 Z" fill="#FFFFFF"></path>
    <path d="M87.186,166.4 C85.898,167.855 84.106,168.59 82.314,168.59 C80.777,168.59 79.234,168.053 77.995,166.959 C49.942,142.09 35.713,116.139 35.713,89.813 L35.713,89.498 C35.713,66.878 49.521,41.152 67.82,29.666 C70.867,27.761 74.887,28.679 76.795,31.726 C78.708,34.768 77.79,38.788 74.743,40.699 C60.155,49.845 48.73,71.285 48.73,89.498 L48.73,89.813 C48.73,112.252 61.482,134.929 86.628,157.209 C89.326,159.598 89.57,163.713 87.186,166.4 Z" fill="#FFFFFF"></path>
</g>
</svg>