<svg xmlns="http://www.w3.org/2000/svg" viewBox="0 0 24 24" width="24" height="24">
<g fill-rule="nonzero">
    <path d="M12,24.0000453 C5.389,24.018 0.017,18.671 0,12.061 L0,12 C0,5.35 5.351,0 12,0 C18.649,0 24,5.35 24,12 C24,18.649 18.649,24.0000453 12,24.0000453 Z" fill="#FC7E0F"></path>
    <polygon fill="#FC7E0F" points="12 19.249 12.9 18.35 12 14.9 11.1 18.35"></polygon>
    <polygon fill="#FC7E0F" points="10.85 19.199 10.4 20.9 11.45 19.848 10.85 19.199"></polygon>
    <polygon fill="#FC7E0F" points="13.15 19.199 12.55 19.8 13.6 20.851 13.15 19.199"></polygon>
    <path d="M14,22.301 L12,20.3 L10,22.301 C10.65,22.401 11.3,22.5 12,22.5 C12.7,22.5 13.35,22.45 14,22.301 L14,22.301 Z" fill="#FC7E0F"></path>
    <path d="M12,1.5 C6.201,1.5 1.4999831,6.201 1.4999831,12 C1.492,16.468 4.325,20.446 8.551,21.899 L10.801,13.549 C10.29,13.177 9.992,12.581 10,11.949 C10,10.848 10.9,9.948 12,9.948 C13.1,9.948 14,10.848 14,11.949 C14,12.598 13.699,13.149 13.199,13.549 L15.449,21.899 C19.676,20.446 22.509,16.467 22.5000214,12 C22.5000214,6.201 17.799,1.5 12,1.5 Z" fill="#FFEEDE"></path>
    <path d="M18.85,17.2 C18.595,17.519 18.136,17.585 17.801,17.35 C17.488,17.143 17.401,16.722 17.607,16.409 C17.621,16.388 17.635,16.369 17.651,16.349 C17.651,16.349 19.001,14.55 19.001,11.999 C19.001,9.448 17.651,7.649 17.651,7.649 C17.412,7.36 17.453,6.93 17.742,6.692 C17.762,6.676 17.781,6.661 17.802,6.648 C18.137,6.413 18.596,6.479 18.851,6.798 C18.951,6.899 20.501,8.948 20.501,11.998 C20.501,15.048 18.949,17.1 18.85,17.2 Z" fill="#FC7E0F"></path>
    <path d="M15.199,15.25 C14.899,14.95 14.95,14.4 15.25,14.1 C15.25,14.1 16,13.301 16,12 C16,10.699 15.25,9.949 15.25,9.9 C14.95,9.599 14.95,9.099 15.199,8.75 C15.431,8.447 15.865,8.393 16.168,8.625 C16.197,8.647 16.224,8.672 16.25,8.699 C16.301,8.75 17.5,10 17.5,12 C17.5,14 16.301,15.25 16.25,15.301 C15.949,15.6 15.5,15.551 15.199,15.25 L15.199,15.25 Z" fill="#FC7E0F"></path>
    <path d="M8.801,15.25 C8.5,15.551 8.051,15.6 7.75,15.301 C7.699,15.199 6.5,14 6.5,12 C6.5,10 7.699,8.801 7.75,8.699 C8.051,8.4 8.551,8.4 8.801,8.75 C9.101,9.05 9.05,9.6 8.75,9.9 C8.75,9.949 8,10.699 8,12 C8,13.301 8.75,14.1 8.75,14.1 C9.05,14.4 9.101,14.899 8.801,15.25 L8.801,15.25 Z" fill="#FC7E0F"></path>
    <path d="M6.199,17.351 C5.864,17.585 5.405,17.52 5.149,17.201 C5.051,17.1 3.5,15.05 3.5,12 C3.5,8.95 5.051,6.9 5.149,6.8 C5.405,6.481 5.864,6.414 6.199,6.65 C6.512,6.856 6.599,7.278 6.393,7.591 C6.38,7.611 6.365,7.631 6.35,7.65 C6.35,7.65 5,9.449 5,12 C5,14.551 6.35,16.35 6.35,16.35 C6.6,16.65 6.5,17.1 6.199,17.351 L6.199,17.351 Z" fill="#FC7E0F"></path>
</g>
</svg>