<svg xmlns="http://www.w3.org/2000/svg" viewBox="0 0 24 24" width="24" height="24">
<g transform="translate(-0.000000, 0.000000)" fill-rule="nonzero">
    <path d="M11.976,0 C11.8602815,0.0023263562 11.7446027,0.00632677483 11.629,0.012 C11.306,0.033 10.858,0.075 10.5,0.122 C7.21,0.57 4.404,2.222 2.507,4.682 C2.03950933,5.28835935 1.63098855,5.93797436 1.287,6.622 C1.22736015,6.74036971 1.16968557,6.85971942 1.114,6.98 C1.022,7.178 0.935,7.38 0.853,7.583 C0.747844366,7.84222942 0.651785673,8.10505668 0.565,8.371 L0.52,8.514 C0.177393585,9.63958274 0.00218565715,10.8094326 0,11.986 L0,12.023 C0.0126853535,18.6414332 5.38155468,24 12,24 C18.1589405,24 23.3179735,19.3375504 23.939,13.21 L23.942,13.186 C23.980304,12.7978406 23.9996603,12.4080446 24,12.018 L24,11.97 C23.9946566,10.5413374 23.7342358,9.12510849 23.231,7.788 C23.191,7.683 23.15,7.578 23.106,7.475 C23.034586,7.30428001 22.9592325,7.13523479 22.88,6.968 C21.393,3.818 18.581,1.378 15.182,0.462 C14.422,0.254 13.204,0.072 12.369,0.018 C12.2540923,0.0103448516 12.1390804,0.00434422993 12.024,0 L11.976,0 Z" fill="#C8122A"></path>
    <path d="M14.297,2.88 C14.463,2.881 14.674,2.936 14.972,3.039 C16.754,3.65 18.745,5.196 19.828,6.803 C20.58,7.921 21.165,9.231 21.165,9.79 C21.165,10.148 20.815,10.471 20.44,10.471 C20.09,10.471 19.732,10.166 19.636,9.791 C19.506,9.266 18.806,7.939 18.291,7.257 C17.374,6.052 15.959,4.995 14.571,4.48 C13.592,4.113 13.339,3.685 13.793,3.144 C13.945,2.962 14.083,2.877 14.297,2.87896553 L14.297,2.88 Z" fill="#FFFFFF"></path>
    <path d="M10.412,4.27998585 C10.672,4.281 10.907,4.336 11.112,4.445 C12.422,5.109 12.352,7.013 10.99,7.537 C9.304,8.174 8.457,8.856 7.906,9.974 C6.753,12.314 7.696,15.074 10.029,16.192 C11.741,17.013 13.697,16.725 15.059,15.467 C15.679,14.891 16.02,14.393 16.326,13.589 C16.754,12.463 17.243,12.044 18.116,12.044 C19.235,12.044 20.003,12.987 19.776,14.07 C19.313,16.2 17.523,18.34 15.356,19.345 C14.16,19.895 13.505,20.035 11.994,20.035 C10.509,20.035 9.863,19.904 8.71,19.38 C5.566,17.956 3.635,14.55 4.037,11.17 C4.41543003,8.04772291 6.56224695,5.42448482 9.548,4.436 C9.863,4.331 10.151,4.279 10.412,4.27998585 Z" fill="#FFFFFF"></path>
    <path d="M13.875,5.24 C14.092,5.244 14.374,5.345 14.789,5.546 C16.475,6.349 17.872,7.825 18.623,9.581 C18.903,10.253 18.763,10.69 18.213,10.864 C17.793,10.987 17.513,10.76 17.147,10 C16.466,8.559 15.497,7.563 14.134,6.89 C13.339,6.506 13.243,6.419 13.164,6.043 C13.129,5.843 13.164,5.729 13.348,5.511 C13.505,5.327 13.658,5.235 13.875,5.24 Z" fill="#FFFFFF"></path>
    <path d="M13.477,7.68299318 C13.707,7.682 13.973,7.791 14.317,8.017 C15.278,8.646 16.361,10 16.361,10.567 C16.361,10.856 16.081,11.223 15.802,11.292 C15.426,11.389 15.156,11.205 14.762,10.585 C14.335,9.93 13.837,9.432 13.322,9.17 C12.876,8.943 12.745,8.768 12.745,8.401 C12.7307987,8.19826535 12.8237458,8.00288689 12.99,7.886 C13.1211851,7.75973626 13.2949736,7.68729465 13.477,7.68299318 L13.477,7.68299318 Z" fill="#FFFFFF"></path>
</g>
</svg>