<svg xmlns="http://www.w3.org/2000/svg" viewBox="0 0 24 24" width="24" height="24">
<g fill-rule="nonzero">
    <path d="M12,0 C5.372,0 0,5.372 0,12 C0,18.628 5.372,24 12,24 C18.628,24 24,18.628 24,12 C24,5.372 18.628,0 12,0 Z" fill="#F43E37"></path>
    <path d="M15.564,12 C15.564,10.032 13.968,8.436 12,8.436 C10.032,8.436 8.436,10.031 8.436,12 C8.436,13.968 10.031,15.564 12,15.564 L12,17.6 C8.907,17.6 6.4,15.093 6.4,12 C6.4,8.907 8.907,6.4 12,6.4 C15.093,6.4 17.6,8.907 17.6,12 L15.564,12 Z" fill="#FFFFFF"></path>
    <path d="M19,12 C19,8.134 15.866,5 12,5 C8.134,5 5,8.134 5,12 C5,15.866 8.134,19 12,19 L12,21.333 C6.845,21.333 2.667,17.154 2.667,12 C2.667,6.845 6.846,2.667 12,2.667 C17.155,2.667 21.333,6.846 21.333,12 L19,12 Z" fill="#FFFFFF"></path>
</g>
</svg>