<svg xmlns="http://www.w3.org/2000/svg" viewBox="0 0 24 24" width="24" height="24">
<g transform="translate(0.000000, 0.036000)" fill-rule="nonzero">
    <path d="M5.36,0.001 C2.41,0.001 0,2.411 0,5.361 L0,18.568 C0,21.518 2.41,23.928 5.36,23.928 L18.64,23.928 C21.585,23.928 24,21.518 24,18.568 L24,5.36 C24,2.41 21.585,0 18.64,0 L5.36,0.001 Z" fill="#F4842D"></path>
    <path d="M11.945,4.286 C16.139675,4.28653983 19.5663701,7.63641517 19.662,11.83 L19.667,19.7260113 L16.277,19.7260113 L16.277,18.4 C15.0005918,19.2665773 13.4927791,19.7286433 11.95,19.7260113 C11.1405036,19.7248415 10.3361509,19.5973058 9.566,19.348 L9.566,14.718 C10.2334393,15.3057677 11.0926496,15.6293941 11.982,15.628 C13.7381929,15.6278443 15.247582,14.3822523 15.581,12.658 L14.297,12.658 C13.9545535,13.8002551 12.8299232,14.5218097 11.6488819,14.3570132 C10.4678406,14.1922168 9.58368538,13.1903666 9.567,11.998 L9.567,11.967 C9.567,10.872 10.295,9.944 11.295,9.651 L11.295,8.367 C9.56924783,8.69983308 8.32172034,10.2094462 8.32,11.967 L8.32,18.819 C5.19422569,17.153288 3.60291977,13.5742323 4.46012067,10.1376252 C5.31732157,6.70101815 8.40310009,4.28857853 11.945,4.286 L11.945,4.286 Z" fill="#FFFFFF"></path>
    <path d="M11.976,6.156 L11.976,7.394 L11.982,7.394 C14.5075312,7.395104 16.5544482,9.44246861 16.555,11.968 L16.555,11.978 L17.792,11.978 L17.792,11.968 C17.792,8.7592256 15.1907744,6.158 11.982,6.158 L11.976,6.156 Z" fill="#F4842D"></path>
    <path d="M11.976,8.305 L11.976,9.551 L11.982,9.551 C12.622834,9.55046835 13.2375593,9.80487173 13.6906037,10.2581037 C14.1436481,10.7113357 14.3977969,11.3261663 14.397,11.967 L14.397,11.977 L15.644,11.977 L15.644,11.967 C15.644,9.94453325 14.0044668,8.305 11.982,8.305 L11.976,8.305 Z" fill="#F4842D"></path>
    <path d="M11.976,10.557 C11.196,10.557 10.567,11.186 10.567,11.967 C10.567,12.747 11.196,13.376 11.977,13.376 C12.757,13.376 13.386,12.747 13.386,11.966 C13.386,11.186 12.757,10.557 11.976,10.557 Z" fill="#F4842D"></path>
</g>
</svg>