<?xml version="1.0" encoding="UTF-8"?>
<svg id="Layer_1" data-name="Layer 1" xmlns="http://www.w3.org/2000/svg" viewBox="0 0 256 256">
  <rect x="86.49" y="47.18" width="29.87" height="5.31" transform="translate(-8.83 25.04) rotate(-13.49)"/>
  <rect x="98.27" y="125.6" width="100.43" height="5.31" transform="translate(10.42 267.66) rotate(-86.1)"/>
  <rect x="182.86" y="69.96" width="5.31" height="30.79" transform="translate(-14.62 125.91) rotate(-36.16)"/>
  <rect x="28" y="118.86" width="30.1" height="5.31" transform="translate(-80.86 157.11) rotate(-86.52)"/>
  <rect x="94.12" y="91.87" width="5.31" height="97.18" transform="translate(-56.16 64.92) rotate(-29.15)"/>
  <rect x="50.24" y="106.07" width="99.75" height="5.31" transform="translate(-47.23 120.28) rotate(-51.84)"/>
  <rect x="128.95" y="50.05" width="5.31" height="98.83" transform="translate(-9.83 184.35) rotate(-68.05)"/>
  <g>
    <path d="m156.28,25.27c-2.86,0-5.18,2.32-5.18,5.18h0v3.17c0,.34.27.61.61.61h9.13c.34,0,.61-.27.61-.61v-3.17h0c0-2.86-2.32-5.18-5.18-5.18Z"/>
    <path d="m185.64,24.11c-3.36-7.84-9.57-13.91-17.48-17.08-16.34-6.55-34.97,1.43-41.51,17.77-6.55,16.35,1.43,34.97,17.77,41.51,3.84,1.54,7.86,2.31,11.88,2.31,4.26,0,8.52-.87,12.56-2.59,7.84-3.36,13.91-9.57,17.08-17.48,3.17-7.92,3.07-16.6-.29-24.44Zm-19.06,24.33c0,.34-.27.61-.61.61h-19.36c-.34,0-.61-.27-.61-.61v-13.6c0-.34.27-.61.61-.61h.87c.34,0,.61-.27.61-.61v-3.17c0-4.41,3.48-8.01,7.84-8.19,4.68-.2,8.56,3.61,8.56,8.29v3.07c0,.34.27.61.61.61h.87c.34,0,.61.27.61.61v13.6Z"/>
  </g>
  <g>
    <path d="m46.41,180.23l-2.79-.18c-.28.62-.9,1.05-1.62,1.05-.47,0-.89-.18-1.2-.48l-7.82,3.95c0,.07.02.14.02.22,0,.45-.17.85-.44,1.16l1.24,2.55c.07,0,.14-.02.22-.02.68,0,1.27.39,1.57.96l5.51-.74c.22-.73.89-1.26,1.69-1.26.1,0,.19.01.29.03l3.66-6.61c-.15-.18-.25-.39-.32-.62Z"/>
    <path d="m40.23,179.32c0-.07.01-.13.02-.2l-6.03-3.04c-.32.3-.75.49-1.22.49-.59,0-1.11-.29-1.43-.73l-7.65,2.24c-.03.49-.26.93-.61,1.23l1.05,3.06c.05,0,.1-.02.15-.02.79,0,1.46.53,1.69,1.25l3.46.37c.3-.57.88-.96,1.57-.96.47,0,.9.19,1.22.49l7.81-3.94c-.01-.08-.02-.16-.02-.24Z"/>
    <path d="m33,173.02c.98,0,1.77.79,1.77,1.78,0,.07-.01.14-.02.22l6.02,3.04c.32-.31.75-.5,1.24-.5.82,0,1.5.56,1.71,1.31l2.77.18c.14-.33.38-.6.67-.79l-.76-4.19s-.04,0-.06,0c-.88,0-1.61-.65-1.75-1.49l-3.66-.2c-.27.64-.9,1.09-1.64,1.09-.98,0-1.78-.79-1.78-1.78,0-.09.01-.19.03-.28l-5.58-2.92c-.32.29-.73.47-1.2.47-.21,0-.4-.04-.59-.11l-6.53,8.04,7.6-2.22c.06-.93.82-1.67,1.76-1.67Z"/>
    <path d="m54.79,179.73c0-.44.17-.84.43-1.15l-4.05-6.93c-.12.02-.24.04-.36.04-.98,0-1.78-.79-1.78-1.78,0-.05.01-.09.01-.14l-7.71-2.96c-.33.39-.81.64-1.35.64-.66,0-1.24-.37-1.54-.91l-5.83.95,5.49,2.88c.31-.28.72-.45,1.17-.45.8,0,1.47.54,1.69,1.27l3.83.21c.31-.52.87-.88,1.52-.88.98,0,1.78.79,1.78,1.78,0,.52-.23.98-.58,1.31l.79,4.38c.88.1,1.57.85,1.57,1.75,0,.47-.18.89-.48,1.21l3.55,6.22c.1-.02.2-.03.31-.03.07,0,.13.01.19.02l2.01-6.04c-.41-.33-.67-.82-.67-1.38Z"/>
    <path d="m48.37,181.48c-.09.01-.17.03-.26.03-.12,0-.24-.01-.36-.04l-3.64,6.56c.14.16.25.34.33.54l7.05.37s0-.01,0-.02c0-.44.17-.84.44-1.15l-3.55-6.27Z"/>
    <path d="m69.4,165.63c-3.36-7.84-9.57-13.91-17.48-17.08-7.92-3.17-16.6-3.07-24.44.29-7.84,3.36-13.91,9.57-17.08,17.48-6.55,16.35,1.43,34.97,17.77,41.51,3.88,1.55,7.89,2.29,11.83,2.29,12.67,0,24.69-7.6,29.68-20.06,3.17-7.92,3.07-16.6-.29-24.44Zm-12.8,15.87l-2.06,6.18c.31.32.5.75.5,1.23,0,.98-.79,1.77-1.77,1.77-.49,0-.94-.2-1.26-.53l-7.54-.39c-.24.7-.89,1.21-1.67,1.21-.74,0-1.37-.45-1.64-1.09l-5.39.73c-.17.81-.88,1.41-1.74,1.41-.98,0-1.78-.79-1.78-1.78,0-.47.19-.9.49-1.22l-1.22-2.5c-.09.02-.19.03-.29.03-.86,0-1.57-.6-1.74-1.41l-3.33-.36c-.26.65-.9,1.11-1.64,1.11-.98,0-1.77-.79-1.77-1.78,0-.49.2-.94.53-1.26l-1.08-3.12s-.02,0-.04,0c-.98,0-1.78-.79-1.78-1.78s.79-1.77,1.78-1.77c.17,0,.32.03.47.07l6.61-8.15c-.16-.27-.26-.58-.26-.92,0-.98.79-1.78,1.78-1.78.67,0,1.24.37,1.55.92l5.95-.97c.15-.83.87-1.46,1.74-1.46.98,0,1.77.79,1.77,1.78,0,0,0,.01,0,.02l7.77,2.99c.32-.33.77-.54,1.28-.54.98,0,1.77.79,1.77,1.78,0,.42-.15.81-.4,1.11l4.07,6.96c.1-.02.2-.03.31-.03.98,0,1.78.79,1.78,1.78s-.78,1.76-1.75,1.77Z"/>
  </g>
  <path d="m245.3,120.78c-3.36-7.84-9.57-13.91-17.48-17.08-16.34-6.55-34.97,1.43-41.51,17.77s1.43,34.97,17.77,41.51c3.88,1.55,7.89,2.29,11.83,2.29,12.67,0,24.69-7.6,29.68-20.06,3.17-7.92,3.07-16.6-.29-24.44Zm-28.06,27.17l-6.09-10.15-10.15-6.09,24.8-8.57-8.57,24.8Z"/>
  <g>
    <path d="m131.22,211.36v10.57c0,2.84,1.34,8.07,10.35,11.64,9.02-3.57,10.35-8.8,10.35-11.64v-10.57c-7.98,0-10.35-2.14-10.35-2.14,0,0-2.38,2.14-10.35,2.14Z"/>
    <path d="m170.93,207.12c-3.36-7.84-9.57-13.91-17.48-17.08-7.92-3.17-16.6-3.07-24.44.29-7.84,3.36-13.91,9.57-17.08,17.48s-3.07,16.6.29,24.44c3.36,7.84,9.57,13.91,17.48,17.08,3.84,1.54,7.86,2.31,11.88,2.31,4.26,0,8.52-.87,12.56-2.59,7.84-3.36,13.91-9.57,17.08-17.48,3.17-7.92,3.07-16.6-.29-24.44Zm-15.37,4.24v10.57c0,3.74-1.64,10.67-12.65,15.02l-1.34.53-1.34-.53c-11.01-4.36-12.65-11.28-12.65-15.02v-14.21h3.64c5.17,0,7.41-.99,7.96-1.28l2.06-3.17,2.69,3.15c.5.27,2.73,1.3,7.99,1.3h3.64v3.64Z"/>
  </g>
  <g>
    <rect x="39.28" y="57.57" width="15.99" height="15.99"/>
    <path d="m76.63,53c-3.36-7.84-9.57-13.91-17.48-17.08-7.92-3.17-16.6-3.07-24.44.29-7.84,3.36-13.91,9.57-17.08,17.48s-3.07,16.6.29,24.44c3.36,7.84,9.57,13.91,17.48,17.08,3.88,1.55,7.89,2.29,11.83,2.29,12.67,0,24.69-7.6,29.68-20.06,3.17-7.92,3.07-16.6-.29-24.44Zm-14.54,11.71c.3-.6.92-1.01,1.63-1.01,1.02,0,1.84.82,1.84,1.84s-.82,1.84-1.84,1.84c-.72,0-1.33-.41-1.64-1.01h-3.52v3.81h3.52c.3-.6.92-1.01,1.63-1.01,1.02,0,1.84.82,1.84,1.84s-.82,1.84-1.84,1.84c-.72,0-1.33-.41-1.64-1.01h-3.52v5.04h-4.52v3.64c.6.3,1.01.92,1.01,1.63,0,1.02-.82,1.84-1.84,1.84s-1.84-.82-1.84-1.84c0-.72.41-1.33,1.01-1.63v-3.64h-3.74v3.64c.6.3,1.01.92,1.01,1.63,0,1.02-.82,1.84-1.84,1.84s-1.84-.82-1.84-1.84c0-.72.41-1.33,1.01-1.63v-3.64h-3.81v3.64c.6.3,1.01.92,1.01,1.63,0,1.02-.82,1.84-1.84,1.84s-1.84-.82-1.84-1.84c0-.72.41-1.33,1.01-1.63v-3.64h-5.56v-5.04h-3.52c-.3.6-.92,1.01-1.63,1.01-1.02,0-1.84-.82-1.84-1.84s.82-1.84,1.84-1.84c.72,0,1.33.41,1.63,1.01h3.52v-3.74h-3.52c-.3.6-.92,1.01-1.63,1.01-1.02,0-1.84-.82-1.84-1.84s.82-1.84,1.84-1.84c.72,0,1.33.41,1.63,1.01h3.52v-3.81h-3.52c-.3.6-.92,1.01-1.63,1.01-1.02,0-1.84-.82-1.84-1.84s.82-1.84,1.84-1.84c.72,0,1.33.41,1.63,1.01h3.52v-5.04h5.08v-3.64c-.6-.3-1.01-.92-1.01-1.63,0-1.02.82-1.84,1.84-1.84s1.84.82,1.84,1.84c0,.72-.41,1.33-1.01,1.63v3.64h3.74v-3.64c-.6-.3-1.01-.92-1.01-1.63,0-1.02.82-1.84,1.84-1.84s1.84.82,1.84,1.84c0,.72-.41,1.33-1.01,1.63v3.64h3.81v-3.64c-.6-.3-1.01-.92-1.01-1.63,0-1.02.82-1.84,1.84-1.84s1.84.82,1.84,1.84c0,.72-.41,1.33-1.01,1.63v3.64h5.01v5.04h3.52c.3-.6.92-1.01,1.63-1.01,1.02,0,1.84.82,1.84,1.84s-.82,1.84-1.84,1.84c-.72,0-1.33-.41-1.64-1.01h-3.52v3.74h3.52Z"/>
  </g>
</svg>