<?xml version="1.0" encoding="UTF-8"?>
<svg id="Layer_1" data-name="Layer 1" xmlns="http://www.w3.org/2000/svg" viewBox="0 0 256 256">
  <defs>
    <style>
      .cls-1 {
        fill: #fff;
      }
    </style>
  </defs>
  <rect class="cls-1" x="87.04" y="47.91" width="29.47" height="5.24" transform="translate(-8.97 25.12) rotate(-13.48)"/>
  <rect class="cls-1" x="98.67" y="125.28" width="99.09" height="5.24" transform="translate(10.49 267.03) rotate(-86.09)"/>
  <rect class="cls-1" x="182.13" y="70.38" width="5.24" height="30.38" transform="translate(-14.9 125.5) rotate(-36.16)"/>
  <rect class="cls-1" x="29.33" y="118.64" width="29.7" height="5.24" transform="translate(-79.52 158.03) rotate(-86.54)"/>
  <rect class="cls-1" x="94.58" y="92" width="5.24" height="95.88" transform="translate(-55.85 65.06) rotate(-29.15)"/>
  <rect class="cls-1" x="51.27" y="106.02" width="98.42" height="5.24" transform="translate(-47.02 120.54) rotate(-51.85)"/>
  <rect class="cls-1" x="128.94" y="50.74" width="5.24" height="97.51" transform="translate(-9.89 184.33) rotate(-68.05)"/>
  <g>
    <path class="cls-1" d="m155.91,26.29c-2.82,0-5.11,2.29-5.11,5.11h0v3.13c0,.33.27.61.61.61h9.01c.33,0,.61-.27.61-.61v-3.13h0c0-2.82-2.29-5.11-5.11-5.11Z"/>
    <path class="cls-1" d="m184.87,25.15c-3.31-7.74-9.44-13.72-17.25-16.85-16.13-6.46-34.5,1.41-40.96,17.53-6.46,16.13,1.41,34.5,17.53,40.96,3.79,1.52,7.75,2.28,11.72,2.28,4.21,0,8.41-.85,12.39-2.56,7.74-3.31,13.72-9.44,16.85-17.25,3.13-7.81,3.03-16.38-.28-24.11Zm-18.81,24.01c0,.33-.27.61-.61.61h-19.11c-.33,0-.61-.27-.61-.61v-13.42c0-.33.27-.61.61-.61h.86c.33,0,.61-.27.61-.61v-3.13c0-4.35,3.43-7.9,7.74-8.08,4.62-.2,8.44,3.56,8.44,8.18v3.03c0,.33.27.61.61.61h.86c.33,0,.61.27.61.61v13.42Z"/>
  </g>
  <g>
    <path class="cls-1" d="m47.5,179.18l-2.75-.18c-.27.61-.88,1.03-1.59,1.03-.46,0-.87-.18-1.19-.47l-7.72,3.9c0,.07.02.14.02.21,0,.44-.17.84-.44,1.15l1.23,2.51c.07,0,.14-.02.21-.02.67,0,1.25.39,1.55.94l5.44-.73c.22-.72.88-1.24,1.67-1.24.1,0,.19.01.28.03l3.61-6.52c-.14-.18-.25-.38-.32-.61Z"/>
    <path class="cls-1" d="m41.41,178.28c0-.07.01-.13.02-.19l-5.95-3c-.31.3-.74.48-1.2.48-.58,0-1.1-.29-1.41-.72l-7.55,2.21c-.03.49-.26.92-.6,1.22l1.04,3.02c.05,0,.1-.02.15-.02.78,0,1.44.52,1.66,1.23l3.41.37c.29-.56.87-.94,1.55-.94.47,0,.89.19,1.2.48l7.7-3.89c-.01-.08-.02-.15-.02-.23Z"/>
    <path class="cls-1" d="m34.27,172.07c.97,0,1.75.78,1.75,1.75,0,.07-.01.14-.02.21l5.94,3c.32-.31.74-.5,1.22-.5.81,0,1.48.55,1.68,1.29l2.73.18c.14-.32.37-.59.66-.78l-.75-4.13s-.04,0-.06,0c-.87,0-1.59-.64-1.72-1.47l-3.61-.2c-.26.63-.89,1.08-1.62,1.08-.97,0-1.75-.78-1.75-1.75,0-.09.01-.18.03-.27l-5.51-2.88c-.31.29-.72.47-1.18.47-.2,0-.4-.04-.58-.11l-6.44,7.94,7.49-2.19c.06-.92.81-1.65,1.74-1.65Z"/>
    <path class="cls-1" d="m55.77,178.69c0-.43.16-.83.43-1.13l-3.99-6.84c-.11.02-.23.04-.35.04-.97,0-1.75-.78-1.75-1.75,0-.05.01-.09.01-.13l-7.61-2.93c-.32.38-.8.63-1.33.63-.66,0-1.22-.36-1.52-.9l-5.75.94,5.42,2.84c.31-.27.71-.44,1.16-.44.79,0,1.45.53,1.67,1.25l3.78.21c.3-.52.86-.87,1.5-.87.97,0,1.75.78,1.75,1.75,0,.51-.22.97-.58,1.29l.78,4.33c.87.1,1.55.83,1.55,1.73,0,.46-.18.88-.47,1.19l3.5,6.14c.1-.02.2-.03.3-.03.07,0,.13.01.19.02l1.98-5.96c-.4-.32-.67-.81-.67-1.36Z"/>
    <path class="cls-1" d="m49.43,180.42c-.08.01-.17.03-.26.03-.12,0-.24-.01-.36-.04l-3.59,6.47c.14.16.25.33.32.53l6.95.36s0-.01,0-.02c0-.44.17-.83.43-1.14l-3.5-6.19Z"/>
    <path class="cls-1" d="m70.18,164.78c-3.31-7.74-9.44-13.72-17.25-16.85-7.81-3.13-16.37-3.03-24.11.28-7.74,3.31-13.72,9.44-16.85,17.25-6.46,16.13,1.41,34.5,17.53,40.96,3.83,1.53,7.78,2.26,11.67,2.26,12.5,0,24.36-7.49,29.29-19.79,3.13-7.81,3.03-16.38-.28-24.11Zm-12.63,15.66l-2.03,6.09c.3.31.49.74.49,1.21,0,.97-.78,1.75-1.75,1.75-.49,0-.93-.2-1.25-.52l-7.44-.39c-.23.69-.88,1.19-1.65,1.19-.73,0-1.35-.44-1.62-1.08l-5.32.72c-.17.79-.87,1.39-1.71,1.39-.97,0-1.75-.78-1.75-1.75,0-.47.19-.89.48-1.2l-1.2-2.47c-.09.02-.19.03-.28.03-.84,0-1.55-.6-1.71-1.39l-3.29-.35c-.26.64-.89,1.09-1.62,1.09-.97,0-1.75-.78-1.75-1.75,0-.49.2-.93.52-1.24l-1.06-3.08s-.02,0-.04,0c-.97,0-1.75-.78-1.75-1.75s.78-1.75,1.75-1.75c.16,0,.32.03.47.07l6.53-8.04c-.16-.26-.26-.57-.26-.9,0-.97.78-1.75,1.75-1.75.66,0,1.23.37,1.52.91l5.87-.96c.15-.82.86-1.44,1.72-1.44.97,0,1.75.78,1.75,1.75,0,0,0,.01,0,.02l7.67,2.95c.32-.33.76-.54,1.26-.54.97,0,1.75.78,1.75,1.75,0,.42-.15.79-.39,1.1l4.01,6.87c.1-.02.2-.03.3-.03.97,0,1.75.78,1.75,1.75s-.77,1.73-1.72,1.75Z"/>
  </g>
  <path class="cls-1" d="m243.73,120.53c-3.31-7.74-9.44-13.72-17.25-16.85-16.13-6.46-34.5,1.41-40.96,17.53s1.41,34.5,17.53,40.96c3.83,1.53,7.78,2.26,11.67,2.26,12.5,0,24.36-7.49,29.29-19.79,3.13-7.81,3.03-16.38-.28-24.11Zm-27.68,26.8l-6-10.01-10.01-6,24.47-8.45-8.45,24.47Z"/>
  <g>
    <path class="cls-1" d="m131.18,209.89v10.43c0,2.8,1.32,7.97,10.21,11.49,8.9-3.52,10.21-8.69,10.21-11.49v-10.43c-7.87,0-10.21-2.11-10.21-2.11,0,0-2.34,2.11-10.21,2.11Z"/>
    <path class="cls-1" d="m170.35,205.71c-3.31-7.74-9.44-13.72-17.25-16.85-7.81-3.13-16.37-3.03-24.11.28-7.74,3.31-13.72,9.44-16.85,17.25-3.13,7.81-3.03,16.38.28,24.11,3.31,7.74,9.44,13.72,17.25,16.85,3.79,1.52,7.76,2.28,11.72,2.28,4.21,0,8.41-.85,12.39-2.56,7.74-3.31,13.72-9.44,16.85-17.25,3.13-7.81,3.03-16.38-.28-24.11Zm-15.16,4.18v10.43c0,3.69-1.62,10.53-12.48,14.82l-1.32.52-1.32-.52c-10.86-4.3-12.48-11.13-12.48-14.82v-14.02h3.59c5.1,0,7.32-.97,7.86-1.26l2.03-3.13,2.65,3.11c.49.27,2.69,1.28,7.89,1.28h3.59v3.59Z"/>
  </g>
  <g>
    <rect class="cls-1" x="40.47" y="58.16" width="15.77" height="15.77"/>
    <path class="cls-1" d="m77.32,53.65c-3.31-7.74-9.44-13.72-17.25-16.85-7.81-3.13-16.37-3.03-24.11.28s-13.72,9.44-16.85,17.25c-3.13,7.81-3.03,16.38.28,24.11,3.31,7.74,9.44,13.72,17.25,16.85,3.83,1.53,7.78,2.26,11.67,2.26,12.5,0,24.36-7.49,29.29-19.79,3.13-7.81,3.03-16.38-.28-24.11Zm-14.35,11.55c.3-.59.91-1,1.61-1,1,0,1.81.81,1.81,1.81s-.81,1.81-1.81,1.81c-.71,0-1.31-.41-1.61-1h-3.48v3.76h3.48c.3-.59.91-1,1.61-1,1,0,1.81.81,1.81,1.81s-.81,1.81-1.81,1.81c-.71,0-1.31-.41-1.61-1h-3.48v4.98h-4.46v3.59c.59.3,1,.91,1,1.61,0,1-.81,1.81-1.81,1.81s-1.81-.81-1.81-1.81c0-.71.41-1.31,1-1.61v-3.59h-3.69v3.59c.59.3,1,.91,1,1.61,0,1-.81,1.81-1.81,1.81s-1.81-.81-1.81-1.81c0-.71.41-1.31,1-1.61v-3.59h-3.76v3.59c.59.3,1,.91,1,1.61,0,1-.81,1.81-1.81,1.81s-1.81-.81-1.81-1.81c0-.71.41-1.31,1-1.61v-3.59h-5.49v-4.98h-3.47c-.3.59-.91,1-1.61,1-1,0-1.81-.81-1.81-1.81s.81-1.81,1.81-1.81c.71,0,1.31.41,1.61,1h3.47v-3.69h-3.47c-.3.59-.91,1-1.61,1-1,0-1.81-.81-1.81-1.81s.81-1.81,1.81-1.81c.71,0,1.31.41,1.61,1h3.47v-3.76h-3.47c-.3.59-.91,1-1.61,1-1,0-1.81-.81-1.81-1.81s.81-1.81,1.81-1.81c.71,0,1.31.41,1.61,1h3.47v-4.97h5.01v-3.59c-.59-.3-1-.91-1-1.61,0-1,.81-1.81,1.81-1.81s1.81.81,1.81,1.81c0,.71-.41,1.31-1,1.61v3.59h3.69v-3.59c-.59-.3-1-.91-1-1.61,0-1,.81-1.81,1.81-1.81s1.81.81,1.81,1.81c0,.71-.41,1.31-1,1.61v3.59h3.76v-3.59c-.59-.3-1-.91-1-1.61,0-1,.81-1.81,1.81-1.81s1.81.81,1.81,1.81c0,.71-.41,1.31-1,1.61v3.59h4.94v4.97h3.48c.3-.59.91-1,1.61-1,1,0,1.81.81,1.81,1.81s-.81,1.81-1.81,1.81c-.71,0-1.31-.41-1.61-1h-3.48v3.69h3.48Z"/>
  </g>
</svg>