<svg id="Layer_7" data-name="Layer 7" xmlns="http://www.w3.org/2000/svg" xmlns:xlink="http://www.w3.org/1999/xlink" viewBox="0 0 2237.62 2898.78"><defs><style>.cls-1{fill:none;}.cls-2{fill:url(#linear-gradient);}.cls-3,.cls-5{fill:none;stroke:currentColor;stroke-width:62.07px;}.cls-3{stroke-linejoin:bevel;}.cls-4{fill:currentColor;}.cls-5{stroke-miterlimit:10;}.cls-6{fill:currentColor;}</style></defs><polygon class="cls-1" points="421.67 2178.63 1118.81 2564.3 1859.05 2194.83 1638.53 2067.25 648.65 2077.88 421.67 2178.63"/><ellipse class="cls-2" cx="1118.81" cy="1118.81" rx="1060.61" ry="1087.77"/><line class="cls-3" x1="393.96" y1="2179.79" x2="611.51" y2="2093.46"/><path class="cls-4" d="M1996.66,2151.4c0,151.87-216.45,275-483.41,275s-483.37-123.15-483.37-275c0-4.78.22-9.56.65-14.29C1136.68,2215.25,1296,2265,1474.19,2265c217.88,0,414-21.7,512.64-131.5C1997.37,2156,1996.66,2127,1996.66,2151.4Z" transform="translate(-394.46 -35.09)"/><circle class="cls-5" cx="1118.81" cy="1118.81" r="1087.77"/><polygon class="cls-4" points="1118.81 2532.36 381.45 2152.26 381.45 2532.36 1118.81 2898.78 1882.7 2525.52 1882.7 2152.26 1118.81 2532.36"/><line class="cls-3" x1="1870.12" y1="2179.53" x2="1633.54" y2="2085.65"/><path class="cls-4" d="M1513.27,173.37c-526.72,0-953.71,427-953.71,953.72s427,953.71,953.71,953.71,953.72-427,953.72-953.71S2040,173.37,1513.27,173.37Zm434.38,657.07c38.11,85.77,62.74,208.79-65.46,191.1-61.54-15.36-89.84-87.64-67.08-144.68,63-100.68,50.71-180.62-24.8-279.88C1880.12,665.92,1907.53,736.91,1947.65,830.44Zm110.74,636.93c-17.73,105.35-96.53,190.68-183.65,246.76-234.51,148-552.57,145.49-761.77-46.75-189.31-161.32-181.08-458-91.42-670.73-2.35,61.37,19.91,123.35,60.78,169.21-41.74-147.64,50.46-292.3,154.54-390.81-38.34,64.4-42.53,147.88-10.83,215.8C1288.47,761.26,1482.5,585.27,1700,488.77c-105.39,51-95.7,189-73,286.65a324.77,324.77,0,0,1,78.07-171.1c-46.87,94.38-31.79,227.18,7.55,322.34,74,148.11,350.28,280.94,214.57,470.92,64.56-70.48,62.21-184.12,36.66-276.21C2051,1209.85,2082.61,1357.32,2058.39,1467.37Z" transform="translate(-394.46 -35.09)"/><polygon class="cls-6" points="1118.81 2898.78 1118.81 2532.36 1882.7 2152.26 1882.7 2525.52 1118.81 2898.78"/></svg>