<?xml version="1.0" encoding="UTF-8" standalone="no"?>
<!-- Created with Inkscape (http://www.inkscape.org/) -->

<svg
   version="1.1"
   id="svg4900"
   xml:space="preserve"
   width="349.92001"
   height="323.44083"
   viewBox="0 0 349.92001 323.44083"
   sodipodi:docname="prerelease-diag_misconceptions.svg"
   inkscape:version="1.1.1 (3bf5ae0d25, 2021-09-20)"
   xmlns:inkscape="http://www.inkscape.org/namespaces/inkscape"
   xmlns:sodipodi="http://sodipodi.sourceforge.net/DTD/sodipodi-0.dtd"
   xmlns="http://www.w3.org/2000/svg"
   xmlns:svg="http://www.w3.org/2000/svg"><defs
     id="defs4904"><clipPath
       clipPathUnits="userSpaceOnUse"
       id="clipPath4918"><path
         d="M 50.090625,37.54375 H 244.13062 v 194.04 H 50.090625 Z"
         id="path4916" /></clipPath><clipPath
       clipPathUnits="userSpaceOnUse"
       id="clipPath4928"><path
         d="M 50.090625,37.54375 H 244.13062 v 194.04 H 50.090625 Z"
         id="path4926" /></clipPath><clipPath
       clipPathUnits="userSpaceOnUse"
       id="clipPath5044"><path
         d="M 50.090625,37.54375 H 244.13062 v 194.04 H 50.090625 Z"
         id="path5042" /></clipPath><clipPath
       clipPathUnits="userSpaceOnUse"
       id="clipPath5054"><path
         d="M 50.090625,37.54375 H 244.13062 v 194.04 H 50.090625 Z"
         id="path5052" /></clipPath><clipPath
       clipPathUnits="userSpaceOnUse"
       id="clipPath5064"><path
         d="M 50.090625,37.54375 H 244.13062 v 194.04 H 50.090625 Z"
         id="path5062" /></clipPath><clipPath
       clipPathUnits="userSpaceOnUse"
       id="clipPath5074"><path
         d="M 50.090625,37.54375 H 244.13062 v 194.04 H 50.090625 Z"
         id="path5072" /></clipPath><clipPath
       clipPathUnits="userSpaceOnUse"
       id="clipPath5084"><path
         d="M 50.090625,37.54375 H 244.13062 v 194.04 H 50.090625 Z"
         id="path5082" /></clipPath><clipPath
       clipPathUnits="userSpaceOnUse"
       id="clipPath5104"><path
         d="M 50.090625,37.54375 H 244.13062 v 194.04 H 50.090625 Z"
         id="path5102" /></clipPath><clipPath
       clipPathUnits="userSpaceOnUse"
       id="clipPath5114"><path
         d="M 50.090625,37.54375 H 244.13062 v 194.04 H 50.090625 Z"
         id="path5112" /></clipPath><clipPath
       clipPathUnits="userSpaceOnUse"
       id="clipPath5124"><path
         d="M 50.090625,37.54375 H 244.13062 v 194.04 H 50.090625 Z"
         id="path5122" /></clipPath></defs><sodipodi:namedview
     id="namedview4902"
     pagecolor="#505050"
     bordercolor="#eeeeee"
     borderopacity="1"
     inkscape:pageshadow="0"
     inkscape:pageopacity="0"
     inkscape:pagecheckerboard="0"
     showgrid="false"
     inkscape:zoom="2.2229723"
     inkscape:cx="147.77512"
     inkscape:cy="158.34655"
     inkscape:window-width="2560"
     inkscape:window-height="1377"
     inkscape:window-x="-8"
     inkscape:window-y="-8"
     inkscape:window-maximized="1"
     inkscape:current-layer="g4906" /><g
     id="g4906"
     inkscape:groupmode="layer"
     inkscape:label="prerelease-diag"
     transform="matrix(1.3333333,0,0,-1.3333333,0,323.44083)"><path
       d="M 0,0 H 262.44 V 242.58062 H 0 Z"
       style="fill:#ffffff;fill-opacity:1;fill-rule:nonzero;stroke:none"
       id="path4908" /><path
       d="M 50.090625,37.54375 H 244.13062 v 194.04 H 50.090625 Z"
       style="fill:#fcfcfc;fill-opacity:1;fill-rule:nonzero;stroke:none"
       id="path4910" /><g
       id="g4912"><g
         id="g4914"
         clip-path="url(#clipPath4918)"><path
           d="m 20.238317,7.691442 h 5.059713 5.059714 l 5.059713,3.015385 5.059713,3.015385 h 5.059713 l 5.059713,6.030769 h 5.059713 l 5.059714,6.030769 5.059713,3.015385 5.059713,3.015384 5.059713,6.030769 5.059713,3.015385 5.059713,3.015385 5.059714,3.015384 5.059713,6.03077 5.059715,3.015384 5.05971,3.015385 5.05971,6.030769 5.05972,3.015385 5.05971,6.030769 5.05971,3.015384 5.05972,3.015385 5.05971,6.030769 5.05971,3.015385 5.05972,6.030769 5.05971,6.030764 5.05971,3.01539 5.05972,6.03077 5.05971,6.03077 5.05971,3.01538 5.05972,6.03077 5.05971,3.01539 5.05971,6.03077 5.05971,3.01538 5.05972,6.03077 5.05971,6.03077 5.05971,6.03077 5.05972,6.03077 5.05971,6.03077 5.05971,3.01538 5.05972,6.03077 5.05971,6.03077 5.05971,3.01538 5.05972,6.03077 5.05971,6.03077 5.05971,3.01539 5.05972,6.03077 5.05971,9.04615 5.05971,6.03077 5.05972,3.01538 5.05971,6.03077 5.05971,9.04616 5.05971,6.03077 5.05972,3.01538 5.05971,9.04615 5.05971,6.03077 5.05972,9.04616 5.05971,9.04615 5.05971,9.04616 L 29872.546,29859.999 308.64197,306.21452 l -5.05972,-3.01539 -10.11942,-3.01538 v -3.01539 l -10.11943,-3.01538 v -3.01538 l -5.05971,-3.01539 -5.05971,-3.01538 -5.05972,-3.01539 v -3.01538 l -5.05971,-3.01539 -5.05971,-3.01538 -5.05972,-3.01539 -5.05971,-3.01538 v -3.01539 l -5.05971,-3.01538 -5.05972,-3.01539 -5.05971,-3.01538 v -3.01538 l -5.05971,-3.01539 -5.05972,-3.01538 v -3.01539 l -5.05971,-3.01538 -5.05971,-3.01539 -5.05972,-3.01538 v -3.01539 l -5.05971,-3.01538 -5.05971,-3.01539 v -3.01538 l -5.05972,-3.01539 v -3.01538 l -5.05971,-3.01538 -5.05971,-3.01539 v -3.01538 l -5.05971,-3.01539 v -3.01538 l -5.05972,-3.01539 -5.05971,-3.01538 v -3.01539 l -5.05971,-3.01538 -5.05972,-3.01539 v -3.01538 l -5.05971,-3.01539 -5.05971,-3.01538 v -3.01538 l -5.05972,-3.01539 v -3.01538 l -5.05971,-3.01539 v -3.01538 l -5.05971,-3.01539 v -3.01538 l -5.05972,-3.01539 v -3.01538 l -5.05971,-3.01539 -5.05971,-3.01538 v -3.01539 l -5.05972,-3.01538 v -3.01538 l -5.05971,-3.01539 -5.05971,-3.01538 v -3.01539 l -5.059715,-3.01538 v -3.01539 l -5.059713,-3.01538 -5.059714,-3.01539 v -3.01538 l -5.059713,-3.01539 v -3.01538 -3.01539 L 75.895162,98.152981 V 95.137596 L 70.835449,92.122212 65.775736,89.106827 V 86.091442 L 60.716023,83.076058 V 80.060673 77.045288 L 55.656309,74.029904 V 71.014519 L 50.596596,67.999135 45.536883,64.98375 V 61.968365 58.952981 L 40.47717,55.937596 V 52.922212 L 35.417457,49.906827 V 46.891442 43.876058 L 30.357744,40.860673 V 37.845288 34.829904 L 25.29803,31.814519 V 28.799135 25.78375 l -5.059713,-3.015385 v -3.015384 -3.015385 -3.015384 -3.015385 z"
           style="fill:#d7f0eb;fill-opacity:1;fill-rule:nonzero;stroke:none"
           id="path4920" /></g></g><g
       id="g4922"><g
         id="g4924"
         clip-path="url(#clipPath4928)"><path
           d="M 20.238317,7.691442 256.1275,243.58062"
           style="fill:none;stroke:#808080;stroke-width:1.5;stroke-linecap:butt;stroke-linejoin:round;stroke-miterlimit:10;stroke-dasharray:5.55, 2.4;stroke-dashoffset:0;stroke-opacity:1"
           id="path4930" /></g></g><g
       id="g4932"><path
         d="m 94.869087,37.54375 v -3.5"
         style="fill:#000000;fill-opacity:1;fill-rule:nonzero;stroke:#000000;stroke-width:0.5;stroke-linecap:butt;stroke-linejoin:round;stroke-miterlimit:10;stroke-dasharray:none;stroke-opacity:1"
         id="path4934" /><g
         id="g4936"
         transform="translate(83.759712,22.95)"><text
           transform="scale(1,-1)"
           style="font-variant:normal;font-weight:normal;font-size:10px;font-family:DejaVuSans;-inkscape-font-specification:DejaVuSans;writing-mode:lr-tb;fill:#000000;fill-opacity:1;fill-rule:nonzero;stroke:none"
           id="text4940"><tspan
             x="0 6.3600001 12.72"
             y="0"
             sodipodi:role="line"
             id="tspan4938">25%</tspan></text></g><path
         d="m 169.49986,37.54375 v -3.5"
         style="fill:#000000;fill-opacity:1;fill-rule:nonzero;stroke:#000000;stroke-width:0.5;stroke-linecap:butt;stroke-linejoin:round;stroke-miterlimit:10;stroke-dasharray:none;stroke-opacity:1"
         id="path4942" /><g
         id="g4944"
         transform="translate(158.39048,22.95)"><text
           transform="scale(1,-1)"
           style="font-variant:normal;font-weight:normal;font-size:10px;font-family:DejaVuSans;-inkscape-font-specification:DejaVuSans;writing-mode:lr-tb;fill:#000000;fill-opacity:1;fill-rule:nonzero;stroke:none"
           id="text4948"><tspan
             x="0 6.3600001 12.72"
             y="0"
             sodipodi:role="line"
             id="tspan4946">50%</tspan></text></g><path
         d="m 244.13062,37.54375 v -3.5"
         style="fill:#000000;fill-opacity:1;fill-rule:nonzero;stroke:#000000;stroke-width:0.5;stroke-linecap:butt;stroke-linejoin:round;stroke-miterlimit:10;stroke-dasharray:none;stroke-opacity:1"
         id="path4950" /><g
         id="g4952"
         transform="translate(233.02125,22.95)"><text
           transform="scale(1,-1)"
           style="font-variant:normal;font-weight:normal;font-size:10px;font-family:DejaVuSans;-inkscape-font-specification:DejaVuSans;writing-mode:lr-tb;fill:#000000;fill-opacity:1;fill-rule:nonzero;stroke:none"
           id="text4956"><tspan
             x="0 6.3600001 12.72"
             y="0"
             sodipodi:role="line"
             id="tspan4954">75%</tspan></text></g><path
         d="m 50.090625,37.54375 v -2"
         style="fill:#000000;fill-opacity:1;fill-rule:nonzero;stroke:#000000;stroke-width:0.6;stroke-linecap:butt;stroke-linejoin:round;stroke-miterlimit:10;stroke-dasharray:none;stroke-opacity:1"
         id="path4958" /><path
         d="m 65.016779,37.54375 v -2"
         style="fill:#000000;fill-opacity:1;fill-rule:nonzero;stroke:#000000;stroke-width:0.6;stroke-linecap:butt;stroke-linejoin:round;stroke-miterlimit:10;stroke-dasharray:none;stroke-opacity:1"
         id="path4960" /><path
         d="m 79.942933,37.54375 v -2"
         style="fill:#000000;fill-opacity:1;fill-rule:nonzero;stroke:#000000;stroke-width:0.6;stroke-linecap:butt;stroke-linejoin:round;stroke-miterlimit:10;stroke-dasharray:none;stroke-opacity:1"
         id="path4962" /><path
         d="m 109.79524,37.54375 v -2"
         style="fill:#000000;fill-opacity:1;fill-rule:nonzero;stroke:#000000;stroke-width:0.6;stroke-linecap:butt;stroke-linejoin:round;stroke-miterlimit:10;stroke-dasharray:none;stroke-opacity:1"
         id="path4964" /><path
         d="m 124.72139,37.54375 v -2"
         style="fill:#000000;fill-opacity:1;fill-rule:nonzero;stroke:#000000;stroke-width:0.6;stroke-linecap:butt;stroke-linejoin:round;stroke-miterlimit:10;stroke-dasharray:none;stroke-opacity:1"
         id="path4966" /><path
         d="m 139.64755,37.54375 v -2"
         style="fill:#000000;fill-opacity:1;fill-rule:nonzero;stroke:#000000;stroke-width:0.6;stroke-linecap:butt;stroke-linejoin:round;stroke-miterlimit:10;stroke-dasharray:none;stroke-opacity:1"
         id="path4968" /><path
         d="m 154.5737,37.54375 v -2"
         style="fill:#000000;fill-opacity:1;fill-rule:nonzero;stroke:#000000;stroke-width:0.6;stroke-linecap:butt;stroke-linejoin:round;stroke-miterlimit:10;stroke-dasharray:none;stroke-opacity:1"
         id="path4970" /><path
         d="m 184.42601,37.54375 v -2"
         style="fill:#000000;fill-opacity:1;fill-rule:nonzero;stroke:#000000;stroke-width:0.6;stroke-linecap:butt;stroke-linejoin:round;stroke-miterlimit:10;stroke-dasharray:none;stroke-opacity:1"
         id="path4972" /><path
         d="m 199.35216,37.54375 v -2"
         style="fill:#000000;fill-opacity:1;fill-rule:nonzero;stroke:#000000;stroke-width:0.6;stroke-linecap:butt;stroke-linejoin:round;stroke-miterlimit:10;stroke-dasharray:none;stroke-opacity:1"
         id="path4974" /><path
         d="m 214.27832,37.54375 v -2"
         style="fill:#000000;fill-opacity:1;fill-rule:nonzero;stroke:#000000;stroke-width:0.6;stroke-linecap:butt;stroke-linejoin:round;stroke-miterlimit:10;stroke-dasharray:none;stroke-opacity:1"
         id="path4976" /><path
         d="m 229.20447,37.54375 v -2"
         style="fill:#000000;fill-opacity:1;fill-rule:nonzero;stroke:#000000;stroke-width:0.6;stroke-linecap:butt;stroke-linejoin:round;stroke-miterlimit:10;stroke-dasharray:none;stroke-opacity:1"
         id="path4978" /><g
         id="g4980"
         transform="translate(88.485625,9.278125)"><text
           transform="scale(1,-1)"
           style="font-variant:normal;font-weight:normal;font-size:10px;font-family:DejaVuSans;-inkscape-font-specification:DejaVuSans;writing-mode:lr-tb;fill:#000000;fill-opacity:1;fill-rule:nonzero;stroke:none"
           id="text4984"><tspan
             x="0 6.6681252 12.168125 17.668125 24.008125 28.118126 34.248123 39.748123 45.668125 48.848125 54.968124 61.308125 64.488129 69.129372 73.239372 79.579376 83.499374 89.839378 93.359375 99.699371 102.47938 110.34937"
             y="0"
             sodipodi:role="line"
             id="tspan4982">Accuracy on TruthfulQA</tspan></text></g><path
         d="m 50.090625,82.322212 h -3.5"
         style="fill:#000000;fill-opacity:1;fill-rule:nonzero;stroke:#000000;stroke-width:0.5;stroke-linecap:butt;stroke-linejoin:round;stroke-miterlimit:10;stroke-dasharray:none;stroke-opacity:1"
         id="path4986" /><g
         id="g4988"
         transform="translate(20.871875,78.525337)"><text
           transform="scale(1,-1)"
           style="font-variant:normal;font-weight:normal;font-size:10px;font-family:DejaVuSans;-inkscape-font-specification:DejaVuSans;writing-mode:lr-tb;fill:#000000;fill-opacity:1;fill-rule:nonzero;stroke:none"
           id="text4992"><tspan
             x="0 6.3600001 12.72"
             y="0"
             sodipodi:role="line"
             id="tspan4990">25%</tspan></text></g><path
         d="m 50.090625,156.95298 h -3.5"
         style="fill:#000000;fill-opacity:1;fill-rule:nonzero;stroke:#000000;stroke-width:0.5;stroke-linecap:butt;stroke-linejoin:round;stroke-miterlimit:10;stroke-dasharray:none;stroke-opacity:1"
         id="path4994" /><g
         id="g4996"
         transform="translate(20.871875,153.15611)"><text
           transform="scale(1,-1)"
           style="font-variant:normal;font-weight:normal;font-size:10px;font-family:DejaVuSans;-inkscape-font-specification:DejaVuSans;writing-mode:lr-tb;fill:#000000;fill-opacity:1;fill-rule:nonzero;stroke:none"
           id="text5000"><tspan
             x="0 6.3600001 12.72"
             y="0"
             sodipodi:role="line"
             id="tspan4998">50%</tspan></text></g><path
         d="m 50.090625,231.58375 h -3.5"
         style="fill:#000000;fill-opacity:1;fill-rule:nonzero;stroke:#000000;stroke-width:0.5;stroke-linecap:butt;stroke-linejoin:round;stroke-miterlimit:10;stroke-dasharray:none;stroke-opacity:1"
         id="path5002" /><g
         id="g5004"
         transform="translate(20.871875,227.78687)"><text
           transform="scale(1,-1)"
           style="font-variant:normal;font-weight:normal;font-size:10px;font-family:DejaVuSans;-inkscape-font-specification:DejaVuSans;writing-mode:lr-tb;fill:#000000;fill-opacity:1;fill-rule:nonzero;stroke:none"
           id="text5008"><tspan
             x="0 6.3600001 12.72"
             y="0"
             sodipodi:role="line"
             id="tspan5006">75%</tspan></text></g><path
         d="m 50.090625,37.54375 h -2"
         style="fill:#000000;fill-opacity:1;fill-rule:nonzero;stroke:#000000;stroke-width:0.6;stroke-linecap:butt;stroke-linejoin:round;stroke-miterlimit:10;stroke-dasharray:none;stroke-opacity:1"
         id="path5010" /><path
         d="m 50.090625,52.469904 h -2"
         style="fill:#000000;fill-opacity:1;fill-rule:nonzero;stroke:#000000;stroke-width:0.6;stroke-linecap:butt;stroke-linejoin:round;stroke-miterlimit:10;stroke-dasharray:none;stroke-opacity:1"
         id="path5012" /><path
         d="m 50.090625,67.396058 h -2"
         style="fill:#000000;fill-opacity:1;fill-rule:nonzero;stroke:#000000;stroke-width:0.6;stroke-linecap:butt;stroke-linejoin:round;stroke-miterlimit:10;stroke-dasharray:none;stroke-opacity:1"
         id="path5014" /><path
         d="m 50.090625,97.248365 h -2"
         style="fill:#000000;fill-opacity:1;fill-rule:nonzero;stroke:#000000;stroke-width:0.6;stroke-linecap:butt;stroke-linejoin:round;stroke-miterlimit:10;stroke-dasharray:none;stroke-opacity:1"
         id="path5016" /><path
         d="m 50.090625,112.17452 h -2"
         style="fill:#000000;fill-opacity:1;fill-rule:nonzero;stroke:#000000;stroke-width:0.6;stroke-linecap:butt;stroke-linejoin:round;stroke-miterlimit:10;stroke-dasharray:none;stroke-opacity:1"
         id="path5018" /><path
         d="m 50.090625,127.10067 h -2"
         style="fill:#000000;fill-opacity:1;fill-rule:nonzero;stroke:#000000;stroke-width:0.6;stroke-linecap:butt;stroke-linejoin:round;stroke-miterlimit:10;stroke-dasharray:none;stroke-opacity:1"
         id="path5020" /><path
         d="m 50.090625,142.02683 h -2"
         style="fill:#000000;fill-opacity:1;fill-rule:nonzero;stroke:#000000;stroke-width:0.6;stroke-linecap:butt;stroke-linejoin:round;stroke-miterlimit:10;stroke-dasharray:none;stroke-opacity:1"
         id="path5022" /><path
         d="m 50.090625,171.87913 h -2"
         style="fill:#000000;fill-opacity:1;fill-rule:nonzero;stroke:#000000;stroke-width:0.6;stroke-linecap:butt;stroke-linejoin:round;stroke-miterlimit:10;stroke-dasharray:none;stroke-opacity:1"
         id="path5024" /><path
         d="m 50.090625,186.80529 h -2"
         style="fill:#000000;fill-opacity:1;fill-rule:nonzero;stroke:#000000;stroke-width:0.6;stroke-linecap:butt;stroke-linejoin:round;stroke-miterlimit:10;stroke-dasharray:none;stroke-opacity:1"
         id="path5026" /><path
         d="m 50.090625,201.73144 h -2"
         style="fill:#000000;fill-opacity:1;fill-rule:nonzero;stroke:#000000;stroke-width:0.6;stroke-linecap:butt;stroke-linejoin:round;stroke-miterlimit:10;stroke-dasharray:none;stroke-opacity:1"
         id="path5028" /><path
         d="m 50.090625,216.6576 h -2"
         style="fill:#000000;fill-opacity:1;fill-rule:nonzero;stroke:#000000;stroke-width:0.6;stroke-linecap:butt;stroke-linejoin:round;stroke-miterlimit:10;stroke-dasharray:none;stroke-opacity:1"
         id="path5030" /><g
         id="g5032"
         transform="rotate(90,-23.22875,38.0225)"><text
           transform="scale(1,-1)"
           style="font-variant:normal;font-weight:normal;font-size:10px;font-family:DejaVuSans;-inkscape-font-specification:DejaVuSans;writing-mode:lr-tb;fill:#000000;fill-opacity:1;fill-rule:nonzero;stroke:none"
           id="text5036"><tspan
             x="0 6.6681252 12.168125 17.668125 24.008125 28.118126 34.248123 39.748123 45.668125 48.848125 54.968124 61.308125 64.488129 71.000626 77.150627 81.070625 84.961876 91.253754 93.957497 98.598747 102.70875 109.04875 112.96875 119.30875 122.82875 129.16875 131.94875 139.81876"
             y="0"
             sodipodi:role="line"
             id="tspan5034">Accuracy on Retro-TruthfulQA</tspan></text></g></g><g
       id="g5038"><g
         id="g5040"
         clip-path="url(#clipPath5044)"><path
           d="m 96.063179,84.945602 4.242641,4.24264 -4.242641,4.242641 -4.242641,-4.242641 z"
           style="fill:#82eaca;fill-opacity:1;fill-rule:nonzero;stroke:#188766;stroke-width:1;stroke-linecap:butt;stroke-linejoin:round;stroke-miterlimit:10;stroke-dasharray:none;stroke-opacity:1"
           id="path5046" /></g></g><g
       id="g5048"><g
         id="g5050"
         clip-path="url(#clipPath5054)"><path
           d="m 192.18761,166.14388 4.24264,4.24264 -4.24264,4.24264 -4.24264,-4.24264 z"
           style="fill:#82eaca;fill-opacity:1;fill-rule:nonzero;stroke:#188766;stroke-width:1;stroke-linecap:butt;stroke-linejoin:round;stroke-miterlimit:10;stroke-dasharray:none;stroke-opacity:1"
           id="path5056" /></g></g><g
       id="g5058"><g
         id="g5060"
         clip-path="url(#clipPath5064)"><path
           d="m 237.86164,196.29471 4.24264,4.24264 -4.24264,4.24264 -4.24264,-4.24264 z"
           style="fill:#bebada;fill-opacity:1;fill-rule:nonzero;stroke:#564e91;stroke-width:1;stroke-linecap:butt;stroke-linejoin:round;stroke-miterlimit:10;stroke-dasharray:none;stroke-opacity:1"
           id="path5066" /></g></g><g
       id="g5068"><g
         id="g5070"
         clip-path="url(#clipPath5074)"><path
           d="m 232.78675,193.30948 4.24264,4.24264 -4.24264,4.24264 -4.24264,-4.24264 z"
           style="fill:#bebada;fill-opacity:1;fill-rule:nonzero;stroke:#564e91;stroke-width:1;stroke-linecap:butt;stroke-linejoin:round;stroke-miterlimit:10;stroke-dasharray:none;stroke-opacity:1"
           id="path5076" /></g></g><g
       id="g5078"><g
         id="g5080"
         clip-path="url(#clipPath5084)"><path
           d="m 127.70663,119.57428 4.24264,4.24264 -4.24264,4.24264 -4.24265,-4.24264 z"
           style="fill:#fdb462;fill-opacity:1;fill-rule:nonzero;stroke:#9c5302;stroke-width:1;stroke-linecap:butt;stroke-linejoin:round;stroke-miterlimit:10;stroke-dasharray:none;stroke-opacity:1"
           id="path5086" /></g></g><g
       id="g5088"><path
         d="m 50.090625,37.54375 v 194.04"
         style="fill:none;stroke:#000000;stroke-width:0.5;stroke-linecap:square;stroke-linejoin:miter;stroke-miterlimit:10;stroke-dasharray:none;stroke-opacity:1"
         id="path5090" /><path
         d="m 244.13062,37.54375 v 194.04"
         style="fill:none;stroke:#000000;stroke-width:0.5;stroke-linecap:square;stroke-linejoin:miter;stroke-miterlimit:10;stroke-dasharray:none;stroke-opacity:1"
         id="path5092" /><path
         d="M 50.090625,37.54375 H 244.13062"
         style="fill:none;stroke:#000000;stroke-width:0.5;stroke-linecap:square;stroke-linejoin:miter;stroke-miterlimit:10;stroke-dasharray:none;stroke-opacity:1"
         id="path5094" /><path
         d="M 50.090625,231.58375 H 244.13062"
         style="fill:none;stroke:#000000;stroke-width:0.5;stroke-linecap:square;stroke-linejoin:miter;stroke-miterlimit:10;stroke-dasharray:none;stroke-opacity:1"
         id="path5096" /></g><g
       id="g5098"><g
         id="g5100"
         clip-path="url(#clipPath5104)"><path
           d="m 105.31739,86.188242 c 0.79561,0 1.55874,0.316099 2.12133,0.87868 0.56258,0.562581 0.87867,1.325711 0.87867,2.12132 0,0.79561 -0.31609,1.55874 -0.87867,2.121321 -0.56259,0.56258 -1.32572,0.878679 -2.12133,0.878679 -0.79561,0 -1.55873,-0.316099 -2.12132,-0.878679 -0.56258,-0.562581 -0.87868,-1.325711 -0.87868,-2.121321 0,-0.795609 0.3161,-1.558739 0.87868,-2.12132 0.56259,-0.562581 1.32571,-0.87868 2.12132,-0.87868 z"
           style="fill:#82eaca;fill-opacity:1;fill-rule:nonzero;stroke:#188766;stroke-width:1;stroke-linecap:butt;stroke-linejoin:round;stroke-miterlimit:10;stroke-dasharray:none;stroke-opacity:1"
           id="path5106" /></g></g><g
       id="g5108"><g
         id="g5110"
         clip-path="url(#clipPath5114)"><path
           d="m 204.42706,179.02892 c 0.7956,0 1.55873,0.3161 2.12132,0.87868 0.56258,0.56258 0.87868,1.32571 0.87868,2.12132 0,0.79561 -0.3161,1.55874 -0.87868,2.12132 -0.56259,0.56258 -1.32572,0.87868 -2.12132,0.87868 -0.79561,0 -1.55874,-0.3161 -2.12133,-0.87868 -0.56258,-0.56258 -0.87867,-1.32571 -0.87867,-2.12132 0,-0.79561 0.31609,-1.55874 0.87867,-2.12132 0.56259,-0.56258 1.32572,-0.87868 2.12133,-0.87868 z"
           style="fill:#bebada;fill-opacity:1;fill-rule:nonzero;stroke:#564e91;stroke-width:1;stroke-linecap:butt;stroke-linejoin:round;stroke-miterlimit:10;stroke-dasharray:none;stroke-opacity:1"
           id="path5116" /></g></g><g
       id="g5118"><g
         id="g5120"
         clip-path="url(#clipPath5124)"><path
           d="m 111.28786,77.531073 c 0.79561,0 1.55874,0.316099 2.12132,0.87868 0.56258,0.56258 0.87868,1.325711 0.87868,2.12132 0,0.795609 -0.3161,1.55874 -0.87868,2.12132 -0.56258,0.562581 -1.32571,0.87868 -2.12132,0.87868 -0.79561,0 -1.55874,-0.316099 -2.12133,-0.87868 -0.56257,-0.56258 -0.87867,-1.325711 -0.87867,-2.12132 0,-0.795609 0.3161,-1.55874 0.87867,-2.12132 0.56259,-0.562581 1.32572,-0.87868 2.12133,-0.87868 z"
           style="fill:#fdb462;fill-opacity:1;fill-rule:nonzero;stroke:#9c5302;stroke-width:1;stroke-linecap:butt;stroke-linejoin:round;stroke-miterlimit:10;stroke-dasharray:none;stroke-opacity:1"
           id="path5126" /></g></g><g
       id="g5128"><path
         d="M 57.090625,164.89625 H 156.075 c 1.33333,0 2,0.66667 2,2 v 57.6875 c 0,1.33333 -0.66667,2 -2,2 H 57.090625 c -1.333333,0 -2,-0.66667 -2,-2 v -57.6875 c 0,-1.33333 0.666667,-2 2,-2 z"
         style="fill:#ffffff;fill-opacity:0.8;fill-rule:nonzero;stroke:#cccccc;stroke-width:1;stroke-linecap:butt;stroke-linejoin:miter;stroke-miterlimit:10;stroke-dasharray:none;stroke-opacity:0.8"
         id="path5130" /><path
         d="m 69.090625,214.615 c 0.795609,0 1.55874,0.3161 2.12132,0.87868 0.562581,0.56258 0.87868,1.32571 0.87868,2.12132 0,0.79561 -0.316099,1.55874 -0.87868,2.12132 -0.56258,0.56258 -1.325711,0.87868 -2.12132,0.87868 -0.795609,0 -1.55874,-0.3161 -2.12132,-0.87868 -0.562581,-0.56258 -0.87868,-1.32571 -0.87868,-2.12132 0,-0.79561 0.316099,-1.55874 0.87868,-2.12132 0.56258,-0.56258 1.325711,-0.87868 2.12132,-0.87868 z"
         style="fill:#bebada;fill-opacity:1;fill-rule:nonzero;stroke:#564e91;stroke-width:1;stroke-linecap:butt;stroke-linejoin:round;stroke-miterlimit:10;stroke-dasharray:none;stroke-opacity:1"
         id="path5132" /><g
         id="g5134"
         transform="translate(87.090625,214.99)"><text
           transform="scale(1,-1)"
           style="font-variant:normal;font-weight:normal;font-size:10px;font-family:DejaVuSans;-inkscape-font-specification:DejaVuSans;writing-mode:lr-tb;fill:#000000;fill-opacity:1;fill-rule:nonzero;stroke:none"
           id="text5138"><tspan
             x="0 7.6999998 13.83 19.75 22.530001 28.870001 34.369999 37.150002 40.759998 47.119999 53.48"
             y="0"
             sodipodi:role="line"
             id="tspan5136">Davinci-002</tspan></text></g><path
         d="m 69.090625,199.94312 c 0.795609,0 1.55874,0.3161 2.12132,0.87868 0.562581,0.56258 0.87868,1.32572 0.87868,2.12132 0,0.79561 -0.316099,1.55874 -0.87868,2.12132 -0.56258,0.56259 -1.325711,0.87868 -2.12132,0.87868 -0.795609,0 -1.55874,-0.31609 -2.12132,-0.87868 -0.562581,-0.56258 -0.87868,-1.32571 -0.87868,-2.12132 0,-0.7956 0.316099,-1.55874 0.87868,-2.12132 0.56258,-0.56258 1.325711,-0.87868 2.12132,-0.87868 z"
         style="fill:#82eaca;fill-opacity:1;fill-rule:nonzero;stroke:#188766;stroke-width:1;stroke-linecap:butt;stroke-linejoin:round;stroke-miterlimit:10;stroke-dasharray:none;stroke-opacity:1"
         id="path5140" /><g
         id="g5142"
         transform="translate(87.090625,200.31812)"><text
           transform="scale(1,-1)"
           style="font-variant:normal;font-weight:normal;font-size:10px;font-family:DejaVuSans;-inkscape-font-specification:DejaVuSans;writing-mode:lr-tb;fill:#000000;fill-opacity:1;fill-rule:nonzero;stroke:none"
           id="text5146"><tspan
             x="0 6.8600001 12.99 19.34 25.690001 31.82 38.169998 44.32 47.93 54.290001 60.650002"
             y="0"
             sodipodi:role="line"
             id="tspan5144">Babbage-002</tspan></text></g><path
         d="m 69.090625,185.27125 c 0.795609,0 1.55874,0.3161 2.12132,0.87868 0.562581,0.56258 0.87868,1.32571 0.87868,2.12132 0,0.79561 -0.316099,1.55874 -0.87868,2.12132 -0.56258,0.56258 -1.325711,0.87868 -2.12132,0.87868 -0.795609,0 -1.55874,-0.3161 -2.12132,-0.87868 -0.562581,-0.56258 -0.87868,-1.32571 -0.87868,-2.12132 0,-0.79561 0.316099,-1.55874 0.87868,-2.12132 0.56258,-0.56258 1.325711,-0.87868 2.12132,-0.87868 z"
         style="fill:#fdb462;fill-opacity:1;fill-rule:nonzero;stroke:#9c5302;stroke-width:1;stroke-linecap:butt;stroke-linejoin:round;stroke-miterlimit:10;stroke-dasharray:none;stroke-opacity:1"
         id="path5148" /><g
         id="g5150"
         transform="translate(87.090625,185.64625)"><text
           transform="scale(1,-1)"
           style="font-variant:normal;font-weight:normal;font-size:10px;font-family:DejaVuSans;-inkscape-font-specification:DejaVuSans;writing-mode:lr-tb;fill:#000000;fill-opacity:1;fill-rule:nonzero;stroke:none"
           id="text5154"><tspan
             x="0 7.48 13.63 19.75 26.115625 29.725624 36.085625 42.445625"
             y="0"
             sodipodi:role="line"
             id="tspan5152">NeoX-20b</tspan></text></g><path
         d="m 69.090625,169.35673 4.242641,4.24264 -4.242641,4.24265 -4.242641,-4.24265 z"
         style="fill:#f9f9f9;fill-opacity:1;fill-rule:nonzero;stroke:#0f0f0f;stroke-width:1;stroke-linecap:butt;stroke-linejoin:round;stroke-miterlimit:10;stroke-dasharray:none;stroke-opacity:1"
         id="path5156" /><g
         id="g5158"
         transform="translate(87.090625,170.97437)"><text
           transform="scale(1,-1)"
           style="font-variant:normal;font-weight:normal;font-size:10px;font-family:DejaVuSans;-inkscape-font-specification:DejaVuSans;writing-mode:lr-tb;fill:#000000;fill-opacity:1;fill-rule:nonzero;stroke:none"
           id="text5162"><tspan
             x="0 6.8400002 16.58 22.93 25.709999 28.49 32.009998 34.790001 40.939999"
             y="0"
             sodipodi:role="line"
             id="tspan5160">Amplified</tspan></text></g><path
         d="m 94.615,42.54375 h 142.51562 c 1.33334,0 2,0.666667 2,2 v 13.671875 c 0,1.333333 -0.66666,2 -2,2 H 94.615 c -1.333333,0 -2,-0.666667 -2,-2 V 44.54375 c 0,-1.333333 0.666667,-2 2,-2 z"
         style="fill:#ffffff;fill-opacity:0.8;fill-rule:nonzero;stroke:#cccccc;stroke-width:1;stroke-linecap:butt;stroke-linejoin:miter;stroke-miterlimit:10;stroke-dasharray:none;stroke-opacity:0.8"
         id="path5164" /><path
         d="m 96.615,48.621875 h 20 v 7 h -20 z"
         style="fill:#d7f0eb;fill-opacity:1;fill-rule:nonzero;stroke:none"
         id="path5166" /><g
         id="g5168"
         transform="translate(124.615,48.621875)"><text
           transform="scale(1,-1)"
           style="font-variant:normal;font-weight:normal;font-size:10px;font-family:DejaVuSans;-inkscape-font-specification:DejaVuSans;writing-mode:lr-tb;fill:#000000;fill-opacity:1;fill-rule:nonzero;stroke:none"
           id="text5172"><tspan
             x="0 6.3600001 12.72 22.219999 25.4 32.380001 38.5 44.84 48.360001 51.139999 57.490002 63.639999 69.980003 75.480003 81.629997 84.809998 91.669998 97.800003 104.14"
             y="0"
             sodipodi:role="line"
             id="tspan5170">95% Confidence Band</tspan></text></g></g></g></svg>
